<svg id="Layer_1" data-name="Layer 1" xmlns="http://www.w3.org/2000/svg" viewBox="0 0 1080 1080"><defs><style>.cls-1{fill:#393e41;}.cls-2{fill:#20bdff;}</style></defs><title>firct_click_v2</title><path class="cls-1" d="M437.73,525.08V492H430V478.9h7.78v-16q0-9,5.21-14.78T458,442.4a27.51,27.51,0,0,1,6.58.89,18,18,0,0,1,6.36,2.89l-6.2,10.63a5.15,5.15,0,0,0-2.48-1.84,8.35,8.35,0,0,0-2.68-.48,6.8,6.8,0,0,0-5.15,2.11c-1.34,1.4-2,3.64-2,6.73V478.9h11.78V492H452.46v33.13Zm32.09-62.28a6.61,6.61,0,0,1,2.57-5.36,8.61,8.61,0,0,1,5.53-2.11,8.22,8.22,0,0,1,5.42,2.11,6.75,6.75,0,0,1,2.47,5.36,6.61,6.61,0,0,1-2.47,5.32,8.3,8.3,0,0,1-5.42,2.05,8.7,8.7,0,0,1-5.53-2.05A6.48,6.48,0,0,1,469.82,462.8Zm.31,16.31h14.73v46H470.13Z"/><path class="cls-1" d="M513.26,479.11l1.37,12.63-.31-1.9a20.87,20.87,0,0,1,5.47-7,31.64,31.64,0,0,1,6.89-4.48,13.88,13.88,0,0,1,5.21-1.57l-.74,14.73a13.11,13.11,0,0,0-8.84,1.68,15.85,15.85,0,0,0-5.68,6.1,16.5,16.5,0,0,0-2,7.78v18H500v-46Z"/><path class="cls-1" d="M558.08,526a27.7,27.7,0,0,1-10.57-2,23.22,23.22,0,0,1-8.26-5.57l6.1-8.1a25,25,0,0,0,6.26,4.36,11.93,11.93,0,0,0,8.42.95,5.15,5.15,0,0,0,2.26-1.16,2.68,2.68,0,0,0,.84-2,3.34,3.34,0,0,0-1.42-2.84,12.27,12.27,0,0,0-3.63-1.74c-1.47-.45-3.05-.93-4.73-1.42q-6.32-2-9.1-5.84a13.89,13.89,0,0,1-2.79-8.36,14.94,14.94,0,0,1,7.73-12.89A20.65,20.65,0,0,1,559.66,477a35.69,35.69,0,0,1,9.78,1.15A24.29,24.29,0,0,1,577,482l-5.58,8.63A20.7,20.7,0,0,0,567,487.9a12.81,12.81,0,0,0-4.58-1.21,7.55,7.55,0,0,0-3.21.42,5.29,5.29,0,0,0-2,1.36,2.7,2.7,0,0,0-.73,1.79,3.41,3.41,0,0,0,1.52,3.16,12.29,12.29,0,0,0,4.16,1.79q2.52.63,4.94,1.47a19.43,19.43,0,0,1,5.79,2.84,11.86,11.86,0,0,1,5.05,10.21,15.62,15.62,0,0,1-2.16,7.94,15.84,15.84,0,0,1-6.52,6.05A23.61,23.61,0,0,1,558.08,526Z"/><path class="cls-1" d="M594.48,458.91h14.73v20h11.15v11.47H609.21v34.71H594.48V490.37h-7.15V478.9h7.15Z"/><path class="cls-1" d="M670.65,521a23.89,23.89,0,0,1-7.63,3.89,29,29,0,0,1-9,1.48,30.59,30.59,0,0,1-13.73-2.9,21.09,21.09,0,0,1-9-8.31A25.22,25.22,0,0,1,628,502.05a23.81,23.81,0,0,1,3.47-13.1,23,23,0,0,1,9.1-8.26,26,26,0,0,1,11.84-2.84,31.29,31.29,0,0,1,10.78,1.68,26.2,26.2,0,0,1,7.84,4.42l-7.16,9.47a21.46,21.46,0,0,0-4-2.37,14.2,14.2,0,0,0-6.05-1.21,10.31,10.31,0,0,0-5.57,1.58,11.23,11.23,0,0,0-4,4.31,13.16,13.16,0,0,0-1.47,6.32,12.46,12.46,0,0,0,1.58,6.2,11.49,11.49,0,0,0,4.36,4.47,12.77,12.77,0,0,0,6.58,1.63,14,14,0,0,0,4.47-.68,10.27,10.27,0,0,0,3.52-1.95Z"/><path class="cls-1" d="M682,442.08h14.73v83H682Z"/><path class="cls-1" d="M711.57,462.8a6.61,6.61,0,0,1,2.58-5.36,8.59,8.59,0,0,1,5.52-2.11,8.22,8.22,0,0,1,5.42,2.11,6.75,6.75,0,0,1,2.47,5.36,6.61,6.61,0,0,1-2.47,5.32,8.3,8.3,0,0,1-5.42,2.05,8.68,8.68,0,0,1-5.52-2.05A6.49,6.49,0,0,1,711.57,462.8Zm.31,16.31h14.73v46H711.88Z"/><path class="cls-1" d="M780.79,521a23.73,23.73,0,0,1-7.62,3.89,29.08,29.08,0,0,1-9,1.48,30.56,30.56,0,0,1-13.73-2.9,21.11,21.11,0,0,1-9.05-8.31,25.22,25.22,0,0,1-3.21-13.09,23.73,23.73,0,0,1,3.48-13.1,22.82,22.82,0,0,1,9.1-8.26,25.94,25.94,0,0,1,11.83-2.84,31.35,31.35,0,0,1,10.79,1.68,26,26,0,0,1,7.83,4.42l-7.15,9.47a21.46,21.46,0,0,0-4-2.37,14.23,14.23,0,0,0-6-1.21,10.35,10.35,0,0,0-5.58,1.58,11.28,11.28,0,0,0-4,4.31,13.05,13.05,0,0,0-1.48,6.32,12.57,12.57,0,0,0,1.58,6.2,11.52,11.52,0,0,0,4.37,4.47,12.73,12.73,0,0,0,6.57,1.63,13.92,13.92,0,0,0,4.47-.68,10.32,10.32,0,0,0,3.53-1.95Z"/><path class="cls-1" d="M792.15,525.08v-83h14.73v83Zm10.31-12.72-1.47-14L828.76,478l9,7.89Zm16.1-18.52,20.83,31.24H822.24l-13.36-22.82Z"/><path class="cls-2" d="M452,621.19a22,22,0,0,1-11.47-3,20.67,20.67,0,0,1-7.94-8.68,29.27,29.27,0,0,1-2.9-13.46,26.18,26.18,0,0,1,3.16-13.26,21,21,0,0,1,8.63-8.31A27.84,27.84,0,0,1,462.4,573a16.61,16.61,0,0,1,6.79,4.21v-40.3h14.62v83H469.08V611l1.16,3.15a37,37,0,0,1-8,5A23.94,23.94,0,0,1,452,621.19Zm4.84-12.41a15.62,15.62,0,0,0,5.2-.79,12,12,0,0,0,4-2.32,13.63,13.63,0,0,0,3-3.84V590.58a10.05,10.05,0,0,0-2.58-4,12,12,0,0,0-4.21-2.52,15.67,15.67,0,0,0-5.41-.9,11.83,11.83,0,0,0-6.05,1.63,12.46,12.46,0,0,0-6.16,11,13.08,13.08,0,0,0,1.69,6.63,12.55,12.55,0,0,0,4.47,4.62A11.42,11.42,0,0,0,456.88,608.78Z"/><path class="cls-2" d="M498.64,557.65a6.65,6.65,0,0,1,2.58-5.37,8.59,8.59,0,0,1,5.52-2.1,8.19,8.19,0,0,1,5.42,2.1,6.75,6.75,0,0,1,2.47,5.37,6.58,6.58,0,0,1-2.47,5.31,8.28,8.28,0,0,1-5.42,2,8.7,8.7,0,0,1-5.52-2A6.48,6.48,0,0,1,498.64,557.65ZM499,574h14.73v46H499Z"/><path class="cls-2" d="M552.61,643.07a32.37,32.37,0,0,1-10.47-1.47,27.8,27.8,0,0,1-7.2-3.58q-3-2.1-5.26-4l8.62-10.1a42.24,42.24,0,0,0,5.63,4.26,15.51,15.51,0,0,0,8.47,2,17.28,17.28,0,0,0,6.47-1.21,11.63,11.63,0,0,0,4.84-3.52,9,9,0,0,0,1.84-5.79v-10.1l.53,2.63a15.16,15.16,0,0,1-6.1,6.26q-4.43,2.68-11.58,2.68A21.87,21.87,0,0,1,536.88,618a23.89,23.89,0,0,1-8.47-8.73,24.91,24.91,0,0,1-3.15-12.57,24.57,24.57,0,0,1,3.37-12.89,25.55,25.55,0,0,1,8.73-8.89,21.53,21.53,0,0,1,11.36-3.26,27.91,27.91,0,0,1,10.36,1.74,16.75,16.75,0,0,1,6.58,4.26l-.53,1.37,1.58-5h13.57v46a19.74,19.74,0,0,1-3.79,11.94,26.09,26.09,0,0,1-10,8.21A31.63,31.63,0,0,1,552.61,643.07Zm-12.52-46.81a13.08,13.08,0,0,0,1.69,6.63,12.38,12.38,0,0,0,4.57,4.63,12.66,12.66,0,0,0,6.47,1.68,17,17,0,0,0,5.42-.79,12.57,12.57,0,0,0,7.31-6.15V591a10.34,10.34,0,0,0-2.84-4,14,14,0,0,0-4.37-2.52,16,16,0,0,0-5.52-.9,12.94,12.94,0,0,0-6.47,1.64,12,12,0,0,0-4.57,4.47A12.45,12.45,0,0,0,540.09,596.26Z"/><path class="cls-2" d="M595.11,557.65a6.65,6.65,0,0,1,2.58-5.37,8.59,8.59,0,0,1,5.52-2.1,8.19,8.19,0,0,1,5.42,2.1,6.75,6.75,0,0,1,2.47,5.37,6.58,6.58,0,0,1-2.47,5.31,8.28,8.28,0,0,1-5.42,2,8.7,8.7,0,0,1-5.52-2A6.48,6.48,0,0,1,595.11,557.65Zm.32,16.31h14.73v46H595.43Z"/><path class="cls-2" d="M629.62,553.76h14.73v20H655.5v11.47H644.35v34.72H629.62V585.21h-7.16V573.74h7.16Z"/><path class="cls-2" d="M686.11,621.19a25.79,25.79,0,0,1-11.62-2.58,19.09,19.09,0,0,1-8.26-7.94c-2-3.58-3.05-8.13-3.05-13.68a27.36,27.36,0,0,1,3.15-13.46,23.12,23.12,0,0,1,8.32-8.79,20.92,20.92,0,0,1,10.94-3.1q6.84,0,10.36,2.26a26,26,0,0,1,5.84,5l-.63,1.79,1.36-6.73H716.2v46H701.47v-10l1.16,3.15c-.14,0-.56.41-1.26,1.21a23.13,23.13,0,0,1-3.11,2.84,19.8,19.8,0,0,1-5,2.84A18.84,18.84,0,0,1,686.11,621.19Zm4.21-12a13.39,13.39,0,0,0,4.74-.79,10.73,10.73,0,0,0,3.68-2.31,14,14,0,0,0,2.73-3.84V591a10.38,10.38,0,0,0-2.52-4,11.94,11.94,0,0,0-4-2.52,14.11,14.11,0,0,0-5.16-.9,11,11,0,0,0-5.83,1.64,11.74,11.74,0,0,0-4.26,4.47,14.08,14.08,0,0,0,.1,13.15,12.66,12.66,0,0,0,4.47,4.63A11.53,11.53,0,0,0,690.32,609.2Z"/><path class="cls-2" d="M731.35,536.92h14.73v83H731.35Z"/><path class="cls-2" d="M263.76,469.39a87.9,87.9,0,0,0-.05,124.33l.4.4a87.65,87.65,0,0,0,63,25.37c11.5-.16,17.09-14.17,9-22.31a12.92,12.92,0,0,0-4.33-2.86,13.2,13.2,0,0,0-5.11-1,61.77,61.77,0,1,1,52-29.56c-.26.43-.53.85-.8,1.27a62,62,0,0,1-18.49,18.47l3.08,3.08a22.55,22.55,0,0,0,6.65,4.6,22.18,22.18,0,0,0,24.79-4.42l.16-.16c.7-.7,1.39-1.41,2.08-2.12.17-.22.34-.44.5-.67.32-.42.63-.85.94-1.28l.09-.14L398,582l.22-.32.66-1a.47.47,0,0,0,.06-.09.61.61,0,0,0,.07-.1c.28-.4.54-.81.81-1.22.06-.1.12-.2.19-.3l0,0s0,0,0-.06c.35-.54.69-1.08,1-1.63a.09.09,0,0,0,0-.06c.27-.45.55-.91.81-1.37.12-.19.23-.38.34-.58l.3-.53c.16-.27.3-.54.45-.81l.06-.11c.31-.56.61-1.13.9-1.69.07-.13.14-.25.2-.39.19-.36.37-.72.55-1.09l0-.05.15-.31c.16-.32.32-.65.47-1a1.79,1.79,0,0,0,.12-.24.2.2,0,0,0,0-.08c.11-.23.22-.46.32-.69l.13-.3c.12-.25.23-.5.34-.75a.3.3,0,0,1,0-.08l.28-.64c0-.11.09-.21.13-.31.15-.34.29-.68.43-1l.06-.15.06-.14c.15-.36.29-.72.43-1.08s.18-.46.26-.69l.11-.26,0-.09a2.39,2.39,0,0,0,.11-.32c.14-.34.27-.69.39-1a2.09,2.09,0,0,0,.08-.23c.19-.53.38-1.07.55-1.6h0c.19-.57.38-1.14.56-1.72,0-.06,0-.12.05-.17.16-.51.31-1,.46-1.54.22-.75.43-1.52.63-2.27.11-.46.23-.91.34-1.36,0-.16.07-.32.11-.47.12-.51.24-1,.35-1.53l0-.15a87.92,87.92,0,0,0-148-80.93Z"/><path class="cls-2" d="M403.58,559.21l-.16.16a22.34,22.34,0,0,1-31.45-.18l-20.56-20.57,19.39-9.07a4.74,4.74,0,0,0-.48-8.79l-76.38-25.92a3.75,3.75,0,0,0-4.75,4.75L315.05,576a4.74,4.74,0,0,0,8.79.49l9.08-19.39,29.5,29.52a22.55,22.55,0,0,0,6.65,4.6,22.18,22.18,0,0,0,24.79-4.42l.16-.16c.7-.7,1.39-1.41,2.08-2.12.17-.22.34-.44.5-.67l.71-1a87.23,87.23,0,0,0,14.49-32.56Q407.9,554.9,403.58,559.21Z"/></svg>