<svg xmlns="http://www.w3.org/2000/svg" xmlns:xlink="http://www.w3.org/1999/xlink" viewBox="0 0 1080 1080"><defs><style>.cls-1{isolation:isolate;}.cls-2{fill:#eefbff;}.cls-3{font-size:42.9px;font-family:BarlowCondensed-Regular, Barlow Condensed;}.cls-3,.cls-7{fill:#232323;}.cls-4{letter-spacing:0em;}.cls-5{letter-spacing:-0.01em;}.cls-6{letter-spacing:0em;}.cls-8{fill:#20bdff;}.cls-9{mix-blend-mode:multiply;fill:url(#linear-gradient);}</style><linearGradient id="linear-gradient" x1="704.21" y1="442.67" x2="653.86" y2="576.66" gradientUnits="userSpaceOnUse"><stop offset="0.19" stop-color="#fff" stop-opacity="0"/><stop offset="0.24" stop-color="#deeff8" stop-opacity="0.15"/><stop offset="0.34" stop-color="#acd6ee" stop-opacity="0.37"/><stop offset="0.44" stop-color="#81c1e5" stop-opacity="0.57"/><stop offset="0.54" stop-color="#5eafde" stop-opacity="0.72"/><stop offset="0.65" stop-color="#43a2d8" stop-opacity="0.84"/><stop offset="0.76" stop-color="#2f99d4" stop-opacity="0.93"/><stop offset="0.87" stop-color="#2493d2" stop-opacity="0.98"/><stop offset="1" stop-color="#2091d1"/></linearGradient></defs><title>firct_click_v2</title><g class="cls-1"><g id="Layer_1" data-name="Layer 1"><rect class="cls-2" x="-13" y="-13" width="1106" height="1106"/><text class="cls-3" transform="translate(475.06 1024.42)">ast<tspan class="cls-4" x="45.22" y="0">r</tspan><tspan class="cls-5" x="57.57" y="0">o.</tspan><tspan x="82.92" y="0">c</tspan><tspan class="cls-4" x="100.17" y="0">re</tspan><tspan class="cls-6" x="129.81" y="0">ate</tspan></text><path class="cls-7" d="M454.61,1030H440.92l-1.59-.14a11.58,11.58,0,0,1-7.33-2.76,10.54,10.54,0,0,1-3.43-7.95c-.1-5.67-.09-11.35,0-17a10.73,10.73,0,0,1,2.74-7.27,10.49,10.49,0,0,1,7.89-3.42c5.72-.1,11.44-.16,17.15,0,6,.17,9.86,3.89,10.56,9.85.1.83.16,1.66.23,2.49v13.69c-.05.55-.11,1.1-.14,1.65-.3,6.05-3.89,9.93-9.9,10.64C456.27,1029.87,455.43,1029.93,454.61,1030Zm9.1-19.33h-.07c0-.35,0-.69,0-1-.08-2.77,0-5.56-.28-8.31a6.45,6.45,0,0,0-5.81-6.2,37.15,37.15,0,0,0-5.78-.34c-4,0-8.09,0-12.13.12-4.35.14-7,2.35-7.46,6.28a43.47,43.47,0,0,0-.27,5.47c0,4,0,8.09.13,12.13.16,4.55,2.43,7.25,6.89,7.46,5.88.28,11.78.27,17.66,0,4.33-.2,6.45-2.52,6.84-6.88C463.69,1016.49,463.63,1013.57,463.71,1010.67Zm-6,0a9.95,9.95,0,1,1-9.91-9.95A9.93,9.93,0,0,1,457.71,1010.64Zm-9.93-6.46a6.46,6.46,0,1,0,6.44,6.46A6.48,6.48,0,0,0,447.78,1004.18ZM458.12,998a2.33,2.33,0,1,0,2.3,2.36A2.32,2.32,0,0,0,458.12,998Z"/><path class="cls-8" d="M566,766l-48.6-16.47a2,2,0,0,0-2.55,2.55l16.47,48.6a2,2,0,0,0,3.72.22l6.38-13.47,10.15,10.16a2,2,0,0,0,2.84,0l4.25-4.25,4.25-4.25a2,2,0,0,0,0-2.84l-10.15-10.16,13.46-6.37A2,2,0,0,0,566,766Z"/><polygon class="cls-8" points="694.36 750.28 669.2 801.22 694.36 792.11 719.51 801.22 694.36 750.28"/><path class="cls-8" d="M385.42,806.68a28,28,0,0,0,30.39-27.93v-.18a28,28,0,0,0-8.5-19.93,4.17,4.17,0,0,0-7,3h0a4.18,4.18,0,0,0,1.28,3,19.61,19.61,0,0,1,5.92,14.12,19.7,19.7,0,0,1-39.4,0A19.61,19.61,0,0,1,374,764.67a4.21,4.21,0,0,0,1.27-3h0a4.17,4.17,0,0,0-7.09-3,28,28,0,0,0,17.24,48Z"/><path class="cls-8" d="M392,748.89V780.8a4.17,4.17,0,0,1-4.17,4.17h0a4.17,4.17,0,0,1-4.17-4.17V749.13a4.33,4.33,0,0,1,4.38-4.4,4.26,4.26,0,0,1,2.74,1.22A4.15,4.15,0,0,1,392,748.89Z"/><rect class="cls-7" x="463.87" y="773.57" width="2.83" height="15.65" rx="1.41"/><rect class="cls-7" x="463.87" y="773.57" width="2.83" height="15.65" rx="1.41" transform="translate(1246.67 316.11) rotate(90)"/><rect class="cls-7" x="621.85" y="773.57" width="2.83" height="15.65" rx="1.41"/><rect class="cls-7" x="621.85" y="773.57" width="2.83" height="15.65" rx="1.41" transform="translate(1404.65 158.13) rotate(90)"/><path class="cls-8" d="M412.36,324.66a180.57,180.57,0,0,0-.1,255.38l.82.82A180.05,180.05,0,0,0,542.4,633c23.63-.31,35.11-29.1,18.41-45.81a26.63,26.63,0,0,0-8.89-5.9,27.3,27.3,0,0,0-10.5-2A126.56,126.56,0,0,1,449.12,541c-47.78-49-47.82-128-.08-177.06A126.91,126.91,0,0,1,648.31,518.57c-.53.87-1.08,1.74-1.63,2.6a127.53,127.53,0,0,1-38,37.94l6.31,6.32a45.86,45.86,0,0,0,64.59.37l.33-.33q2.16-2.16,4.27-4.34c.35-.45.7-.91,1-1.38.65-.86,1.29-1.75,1.92-2.63l.2-.28.69-1q.23-.32.45-.66c.46-.66.91-1.32,1.36-2A1,1,0,0,0,690,553a1,1,0,0,0,.14-.22c.57-.82,1.12-1.66,1.66-2.51.14-.2.26-.41.39-.6a.35.35,0,0,0,.05-.08.3.3,0,0,0,.07-.11c.71-1.1,1.41-2.22,2.09-3.35a.36.36,0,0,0,.08-.12c.56-.94,1.13-1.87,1.67-2.81.24-.4.47-.8.7-1.2s.41-.73.61-1.09c.32-.55.62-1.1.92-1.65a1.83,1.83,0,0,0,.13-.24c.64-1.15,1.25-2.31,1.84-3.47.15-.26.29-.52.42-.79.38-.74.76-1.49,1.12-2.24l.06-.1c.11-.21.22-.43.31-.64.34-.67.66-1.35,1-2,.08-.16.17-.33.24-.5l.08-.16.66-1.43.27-.62c.24-.51.47-1,.69-1.54a.71.71,0,0,1,.08-.15c.18-.44.38-.89.57-1.33.09-.21.19-.42.27-.63.31-.69.6-1.4.88-2.1a2.71,2.71,0,0,0,.13-.3,2.68,2.68,0,0,0,.12-.3c.3-.74.6-1.47.88-2.22.19-.46.38-.92.55-1.4.07-.18.15-.37.21-.54a1.34,1.34,0,0,0,.07-.18c.08-.21.16-.42.23-.65.28-.72.55-1.43.8-2.16.06-.15.12-.3.17-.46.38-1.1.77-2.19,1.13-3.29,0,0,0,0,0,0,.4-1.17.78-2.36,1.15-3.55l.1-.34c.33-1.05.64-2.1,1-3.16.45-1.55.87-3.12,1.29-4.67.24-.93.47-1.86.7-2.79.08-.32.15-.65.23-1,.25-1,.49-2.08.71-3.14l.07-.31A180.59,180.59,0,0,0,412.36,324.66Z"/><path class="cls-8" d="M699.56,509.16l-.33.33a45.86,45.86,0,0,1-64.59-.37l-42.23-42.26,39.83-18.62a9.75,9.75,0,0,0-1-18.07L474.36,376.94a7.69,7.69,0,0,0-9.75,9.76l53.1,156.92a9.76,9.76,0,0,0,18.07,1l18.65-39.83L615,565.43a45.86,45.86,0,0,0,64.59.37l.33-.33q2.16-2.16,4.27-4.34c.35-.45.7-.91,1-1.38.49-.65,1-1.3,1.45-2a179.37,179.37,0,0,0,29.77-66.89Q708.46,500.28,699.56,509.16Z"/><path class="cls-9" d="M719.39,431.71l-52.89,30.5a126.38,126.38,0,0,1-18.18,56.36,45.53,45.53,0,0,0,50.93-9.09l.32-.33c5.91-5.9,11.56-12,16.88-18.25A180.66,180.66,0,0,0,719.39,431.71Z"/></g></g></svg>