<svg width="476" height="431" viewBox="0 0 476 431" fill="none" xmlns="http://www.w3.org/2000/svg">
<g opacity="0.5">
<path fill-rule="evenodd" clip-rule="evenodd" d="M468.401 99.6036C468.033 99.3362 467.162 99.2414 466.756 99.1613C465.071 98.8288 463.335 98.6841 461.616 98.6841C456.318 98.692 450.934 99.2125 445.724 100.113C442.416 100.685 438.417 102.61 435.126 101.564C429.393 99.7434 423.599 99.8329 418.16 102.433C413.188 104.81 409.413 109.324 407.21 114.203C406.877 114.939 405.529 117.65 405.147 119.477C404.984 119.85 404.827 120.226 404.686 120.608C404.285 121.692 403.925 122.795 403.591 123.9C403.448 124.372 403.089 125.412 403.515 125.614C402.834 126.872 402.229 128.17 401.726 129.509C400.263 133.404 398.663 137.677 398.148 141.805C397.958 143.334 397.951 144.871 398.128 146.403C398.215 147.16 398.179 148.682 398.692 149.258C399.78 150.479 400.339 148.769 400.216 147.955C399.279 141.748 401.088 135.919 403.233 130.084C404.619 126.311 406.898 122.86 409.45 119.734C411.515 117.203 413.731 115.211 416.562 113.533C420.024 111.482 423.726 109.823 427.394 108.16C429.806 107.065 432.221 106 434.701 105.057C435.252 104.847 436.119 104.309 436.731 104.307C438.024 104.302 439.856 105.257 441.104 105.612C445.212 106.781 449.372 108.277 453.617 108.874C456.339 109.257 458.89 108.825 461.437 107.918C461.697 107.825 462.133 107.587 462.667 107.246C464.558 106.519 466.346 105.603 467.903 104.281C468.801 103.52 469.615 102.536 470.357 101.635C470.579 101.366 470.678 101.058 470.681 100.764C470.849 100.676 470.961 100.573 470.986 100.453C471.171 99.5671 469.482 99.5508 468.401 99.6036Z" fill="#0096D5"/>
<path fill-rule="evenodd" clip-rule="evenodd" d="M36.4404 174.081C35.3969 174.926 34.3733 175.789 33.3748 176.687C32.6138 177.372 31.267 178.191 30.9938 179.228C30.7098 180.306 31.6064 181.315 32.3147 181.966C36.0601 185.412 40.2777 187.742 45.4677 188.129C53.459 188.726 60.4139 186.685 67.3475 182.67C72.2179 179.849 75.4441 175.677 76.1487 170.043C81.949 172.454 87.559 175.776 92.3262 179.854C94.6784 181.867 96.7043 184.096 98.5783 186.567C99.7784 188.15 100.939 189.759 102.017 191.429C102.485 192.154 102.961 193.441 103.734 193.859C104.642 194.35 105.739 193.581 105.694 192.572C105.657 191.732 104.75 190.757 104.326 190.071C103.621 188.931 102.906 187.798 102.153 186.689C100.935 184.894 99.6761 183.124 98.3028 181.444C95.2168 177.669 91.2901 174.551 87.2196 171.892C79.4106 166.79 70.8404 163.577 61.3386 163.305C55.4961 163.137 50.5811 165.133 45.5848 168.114C42.4742 169.97 39.2631 171.795 36.4404 174.081Z" fill="#DDE3E9"/>
<path fill-rule="evenodd" clip-rule="evenodd" d="M112.228 149.407C106.139 143.137 100.03 136.945 93.2274 131.424C89.2186 128.17 84.9936 125.212 80.8558 122.127C81.3335 122.545 81.8016 122.975 82.2586 123.416C80.9671 122.539 79.2763 122.044 77.9069 121.232C76.3796 120.327 74.9196 119.292 73.4875 118.248C70.6921 116.211 67.9388 114.136 65.0655 112.205C61.864 110.054 58.5462 108.067 55.2904 105.997C52.5271 104.24 49.73 102.318 46.7739 100.882C45.1628 100.099 43.5478 99.1712 41.93 98.3549C41.3886 98.0817 35.8947 94.6126 35.9086 94.6022C36.2122 94.3734 38.9769 95.6724 39.4044 95.8471C40.6533 96.3573 41.8477 96.9674 43.0485 97.5757C42.3894 96.2757 41.8677 94.9099 41.5837 93.4722C41.496 93.0284 40.7931 89.7979 41.1527 89.5269C41.3324 89.3916 43.0851 95.1714 43.1749 95.7271C43.2479 96.1785 43.2371 96.8285 43.3849 97.2559C43.6234 97.9462 43.6114 97.7377 44.1369 98.1266C45.1001 98.8394 46.3787 99.2847 47.4211 99.8806C47.9832 100.194 49.7237 101.439 50.772 101.794C53.9439 103.334 57.159 105.704 60.1728 107.672C59.3819 106.185 58.7799 104.631 58.3409 103.002C58.2365 102.616 57.1101 99.1463 57.3834 98.9403C57.6909 98.7086 59.8372 104.007 59.9644 104.509C60.2005 105.44 60.2496 106.477 60.5452 107.384C60.8699 108.379 61.8826 108.732 62.7955 109.312C66.154 111.446 69.3971 113.713 72.5863 116.084C76.066 109.896 72.0537 102.422 68.6722 97.2298C66.2348 93.4875 62.9534 90.279 59.4888 87.478C54.8649 83.7397 49.5745 80.7532 44.2907 78.0215C38.134 74.8385 31.4797 72.8664 24.5617 71.9553C20.9434 71.4787 17.2418 71.492 13.587 71.6448C11.8016 71.7193 10.0879 71.9558 8.37694 72.5381C7.6058 72.8009 6.86053 73.132 6.13425 73.5027C5.58243 73.7845 4.24753 74.0819 3.93028 74.5016C1.31852 77.9009 -0.0176237 81.2883 0.186415 85.5599C0.379359 89.6035 1.65643 93.6492 3.38955 97.2561C5.31965 101.272 7.80207 104.918 11.0486 107.977C13.5256 110.311 16.2949 112.343 19.0459 114.348C28.8303 121.478 41.2354 127.68 53.908 126.087C58.0101 125.571 61.9118 124.137 65.5579 122.187C66.417 121.728 67.271 121.263 68.082 120.721C68.6288 120.355 70.0906 118.708 70.6405 118.648C71.3943 118.566 73.0184 120.099 73.7257 120.566C79.1006 124.114 84.3348 127.854 89.4592 131.746C94.9112 135.887 100.096 140.309 105.128 144.939C107.268 146.908 109.395 148.882 111.473 150.917C111.957 151.391 113.14 153.135 114.017 153.214C114.572 153.264 114.946 152.79 114.867 152.277C114.729 151.384 112.851 150.049 112.228 149.407Z" fill="#20BDFF"/>
<path fill-rule="evenodd" clip-rule="evenodd" d="M461.6 125.142C459.236 124.625 456.625 124.664 454.217 124.707C441.3 124.883 428.616 131.007 420.362 140.793C413.334 149.124 411.402 159.481 410.013 169.952C409.876 170.991 409.817 172.024 409.739 173.066C409.722 173.289 409.698 173.489 409.671 173.677C409.125 174.165 408.839 174.735 409.162 175.362C407.959 177.998 406.941 180.7 406.068 183.488C403.499 191.694 400.885 200.055 402.495 208.684C402.871 203.936 403.663 199.08 404.609 194.41C404.663 194.142 404.722 193.876 404.783 193.611C404.79 193.583 404.796 193.555 404.802 193.527C405.137 192.097 405.572 190.709 406.102 189.344C406.107 189.329 406.113 189.314 406.119 189.299C406.188 189.12 406.263 188.941 406.336 188.762C406.488 188.392 406.643 188.023 406.809 187.655C406.865 187.53 406.918 187.404 406.97 187.276C407.741 185.384 408.066 183.252 408.757 181.294C408.922 180.849 409.095 180.405 409.276 179.964C409.287 179.938 409.297 179.912 409.308 179.886C409.797 178.699 410.338 177.526 410.909 176.366C411.22 176.132 411.386 175.552 411.654 175.025C411.709 174.921 412.142 174.229 412.271 173.83C412.607 173.178 412.943 172.526 413.282 171.875C413.271 171.879 413.261 171.882 413.251 171.886C413.59 171.261 413.93 170.639 414.268 170.019C414.342 169.883 414.417 169.747 414.492 169.61C414.613 169.393 414.734 169.176 414.855 168.959C415.987 166.931 417.186 164.944 418.432 162.982C418.877 162.281 419.939 161.277 420.143 160.491C420.15 160.461 420.152 160.434 420.156 160.406C422.86 156.604 425.972 153.096 429.704 150.317C429.253 150.806 428.294 152.463 428.04 152.791C427.265 153.796 426.422 154.731 425.577 155.678C424.063 157.374 422.584 159.123 421.271 160.973C418.869 164.357 416.796 167.918 414.837 171.55C414.819 171.572 414.798 171.592 414.781 171.614C413.796 172.829 413.176 174.666 412.468 176.057C415.273 174.756 418.374 173.908 421.253 172.753C424.123 171.601 426.916 170.318 429.612 168.812C433.196 166.811 436.913 164.551 440.298 161.993C444.178 159.583 447.439 156.265 450.317 152.784C453.722 148.664 456.843 144.509 458.772 139.508C459.72 137.05 460.466 134.487 460.908 131.894C460.928 131.781 460.953 131.659 460.979 131.532C461.432 130.636 461.836 129.721 462.176 128.784C462.715 127.298 463.987 125.664 461.6 125.142Z" fill="#393E41"/>
<path fill-rule="evenodd" clip-rule="evenodd" d="M140.778 189.257C140.343 188.81 139.854 188.406 139.28 188.119C139.135 188.046 138.054 187.559 137.983 187.666C137.819 187.915 140.647 189.114 140.778 189.257ZM145.903 186.271C145.9 186.29 146.275 186.893 146.377 187.079C146.594 187.473 146.795 187.875 146.983 188.277C146.704 187.566 146.417 186.907 145.903 186.271ZM119.691 191.18C119.33 191.291 118.896 190.856 119.364 190.749C119.743 190.663 119.724 190.643 119.894 190.353C120.032 190.118 120.117 189.832 120.239 189.585C120.496 189.062 120.788 188.563 121.146 188.096C121.913 187.094 122.848 186.231 123.896 185.503C125.726 184.233 127.778 183.073 129.955 182.49C133.416 181.563 137.354 181.506 140.821 182.148C142.967 182.546 144.929 183.238 146.355 184.877C147.067 185.696 147.626 186.656 147.871 187.712C147.935 187.989 147.923 188.296 148.003 188.566C148.125 188.982 148.071 188.871 148.584 188.952C149.144 189.04 149.703 189.131 150.263 189.222C151.727 189.462 153.2 189.717 154.627 190.107C155.097 190.235 155.556 190.392 156.005 190.574C156.344 190.712 157.695 191.144 157.86 191.562C158.133 192.258 157.217 191.942 156.933 191.791C156.683 191.658 156.427 191.534 156.168 191.42C155.514 191.133 154.833 190.912 154.136 190.735C153.384 190.544 152.615 190.401 151.85 190.259C151.137 190.126 150.42 190.005 149.703 189.889C149.305 189.825 148.906 189.762 148.507 189.7C148.371 189.679 148.131 189.567 148.149 189.735C147.311 189.582 146.404 189.604 145.55 189.561C144.504 189.51 143.455 189.467 142.405 189.498C141.648 189.521 140.891 189.568 140.138 189.664C139.698 189.721 139.265 189.803 138.833 189.907C138.596 189.965 137.661 190.086 137.532 190.282C137.587 190.198 138.619 190.28 138.751 190.275C139.276 190.256 139.797 190.207 140.321 190.152C141.292 190.049 142.264 189.995 143.238 190.003C143.235 190.165 142.569 190.454 142.407 190.561C142.042 190.802 141.693 191.065 141.368 191.354C140.794 191.862 140.108 192.491 139.711 193.093C139.828 192.916 140.405 192.685 140.609 192.549C140.937 192.332 141.258 192.1 141.562 191.853C141.843 191.624 142.105 191.377 142.362 191.125C142.62 190.872 142.969 190.347 143.307 190.179C143.328 190.169 143.475 190.28 143.559 190.242C143.643 190.204 143.748 190.015 143.77 190.007C144.085 189.892 144.683 190.035 145.014 190.05C145.872 190.087 146.73 190.137 147.588 190.181C147.854 190.195 148.079 190.138 148.18 190.324C148.287 190.522 148.091 191.043 148.035 191.259C147.828 192.061 147.461 192.78 146.882 193.401C145.799 194.565 144.464 195.341 142.955 195.86C137.177 197.848 131.029 198.644 125.253 196.576C122.861 195.72 119.259 194.19 119.691 191.18Z" fill="#0096D5"/>
<g opacity="0.6" clip-path="url(#clip0)">
<path fill-rule="evenodd" clip-rule="evenodd" d="M384.423 284.698C388.358 309.807 292.911 326.185 210.757 314.755C128.603 303.326 90.9142 258.691 130.117 234.908C169.319 211.125 380.487 259.588 384.423 284.698Z" fill="#DDE3E9"/>
</g>
<g clip-path="url(#clip1)">
<rect x="87" y="16.6841" width="110" height="210" rx="8" fill="#F2F2F2"/>
<path fill-rule="evenodd" clip-rule="evenodd" d="M141 253.684C149.284 253.684 156 246.968 156 238.684C156 230.4 149.284 223.684 141 223.684C132.716 223.684 126 230.4 126 238.684C126 246.968 132.716 253.684 141 253.684Z" fill="white"/>
<g clip-path="url(#clip2)">
<g clip-path="url(#clip3)">
<rect x="101" y="44.6841" width="82" height="54" rx="4" fill="white"/>
<g clip-path="url(#clip4)">
<rect x="140" y="60.884" width="24" height="8.1" rx="3" fill="#DDE3E9"/>
<rect x="140" y="74.384" width="16.1096" height="8.1" rx="3" fill="#DDE3E9"/>
</g>
<path fill-rule="evenodd" clip-rule="evenodd" d="M122 83.6841C128.627 83.6841 134 78.3115 134 71.6841C134 65.0567 128.627 59.6841 122 59.6841C115.373 59.6841 110 65.0567 110 71.6841C110 78.3115 115.373 83.6841 122 83.6841Z" fill="#C5CFD6"/>
</g>
<g clip-path="url(#clip5)">
<rect x="101" y="106.684" width="82" height="42" rx="4" fill="white"/>
<g clip-path="url(#clip6)">
<rect x="140" y="119.284" width="24" height="6.3" rx="3" fill="#DDE3E9"/>
<rect x="140" y="129.784" width="16.1096" height="6.3" rx="3" fill="#DDE3E9"/>
</g>
<path fill-rule="evenodd" clip-rule="evenodd" d="M122 139.684C128.627 139.684 134 134.311 134 127.684C134 121.057 128.627 115.684 122 115.684C115.373 115.684 110 121.057 110 127.684C110 134.311 115.373 139.684 122 139.684Z" fill="#C5CFD6"/>
</g>
<g clip-path="url(#clip7)">
<rect x="101" y="156.684" width="82" height="42" rx="4" fill="white"/>
<g clip-path="url(#clip8)">
<rect x="140" y="169.284" width="24" height="6.3" rx="3" fill="#DDE3E9"/>
<rect x="140" y="179.784" width="16.1096" height="6.3" rx="3" fill="#DDE3E9"/>
</g>
<path fill-rule="evenodd" clip-rule="evenodd" d="M122 189.684C128.627 189.684 134 184.311 134 177.684C134 171.057 128.627 165.684 122 165.684C115.373 165.684 110 171.057 110 177.684C110 184.311 115.373 189.684 122 189.684Z" fill="#AFB9C5"/>
</g>
<g clip-path="url(#clip9)">
<rect x="101" y="206.684" width="82" height="42" rx="4" fill="white"/>
<g clip-path="url(#clip10)">
<rect x="140" y="219.284" width="24" height="6.3" rx="3" fill="#DDE3E9"/>
</g>
<path fill-rule="evenodd" clip-rule="evenodd" d="M122 239.684C128.627 239.684 134 234.311 134 227.684C134 221.057 128.627 215.684 122 215.684C115.373 215.684 110 221.057 110 227.684C110 234.311 115.373 239.684 122 239.684Z" fill="#C5CFD6"/>
</g>
</g>
</g>
<g clip-path="url(#clip11)">
<path fill-rule="evenodd" clip-rule="evenodd" d="M79.1399 207.684C77.815 207.684 76.4943 207.711 75.1711 207.78C74.1625 207.832 72.6212 207.623 71.7678 208.252C70.8811 208.905 70.9421 210.241 71.0807 211.185C71.8129 216.177 73.6001 220.603 77.3389 224.14C83.0956 229.585 89.695 232.352 97.5042 233.584C102.99 234.45 108.054 233.248 112.092 229.347C115.043 234.823 117.281 240.883 118.404 246.999C118.958 250.017 119.127 252.999 119.03 256.072C118.967 258.04 118.859 260.004 118.648 261.963C118.556 262.814 118.122 264.103 118.455 264.907C118.846 265.852 120.165 265.943 120.757 265.138C121.25 264.467 121.16 263.15 121.261 262.357C121.429 261.039 121.584 259.72 121.695 258.396C121.876 256.253 122.009 254.104 122 251.953C121.977 247.119 120.902 242.267 119.432 237.679C116.612 228.876 112.037 221.053 104.921 214.915C100.545 211.141 95.5372 209.613 89.8556 208.792C86.3183 208.281 82.7233 207.684 79.1399 207.684Z" fill="#0096D5"/>
<path fill-rule="evenodd" clip-rule="evenodd" d="M99.5713 242.684C85.2724 242.684 75.642 254.208 71.0887 266.186C69.3722 270.7 68.9699 275.658 68.3084 280.399C68.096 281.92 68.1747 284.238 67.5572 285.593C67.3331 286.085 66.8194 286.261 67.065 286.931C67.2137 287.337 67.5055 287.585 67.9436 287.665C68.843 287.831 70.1148 286.851 70.8859 286.465C77.2819 283.257 81.4843 278.297 84.9125 272.229C87.0375 268.468 89.1937 264.563 90.4561 260.434C91.2272 257.912 91.6761 255.255 91.9398 252.638C92.0435 251.608 92.144 250.553 92.1379 249.516C92.1318 248.487 91.6532 247.943 91.3092 247.048C96.0803 245.242 101.466 244.75 106.299 246.621C110.769 248.352 114.482 251.697 116.561 255.9C117.101 256.992 117.518 258.144 117.821 259.32C118.02 260.09 118.029 261.088 118.398 261.784C119.29 263.472 121.168 262.344 120.988 260.773C120.485 256.392 117.979 251.993 114.775 248.947C110.734 245.105 105.258 242.684 99.5713 242.684Z" fill="#0096D5"/>
<rect x="132.159" y="35.6841" width="109.841" height="209" rx="8" fill="#DDE3E9"/>
<path fill-rule="evenodd" clip-rule="evenodd" d="M194 272.684C202.284 272.684 209 265.968 209 257.684C209 249.4 202.284 242.684 194 242.684C185.716 242.684 179 249.4 179 257.684C179 265.968 185.716 272.684 194 272.684Z" fill="white"/>
<g clip-path="url(#clip12)">
<g clip-path="url(#clip13)">
<rect x="161" y="63.6841" width="67" height="54" rx="4" fill="white"/>
<g clip-path="url(#clip14)">
<rect x="170" y="79.884" width="9" height="8.1" rx="3" fill="#DDE3E9"/>
<rect x="170" y="93.384" width="6.0411" height="8.1" rx="3" fill="#DDE3E9"/>
</g>
</g>
<g clip-path="url(#clip15)">
<rect x="161" y="125.684" width="67" height="42" rx="4" fill="white"/>
<g clip-path="url(#clip16)">
<rect x="200" y="138.284" width="9" height="6.3" rx="3" fill="#DDE3E9"/>
<rect x="200" y="148.784" width="6.0411" height="6.3" rx="3" fill="#DDE3E9"/>
</g>
<path fill-rule="evenodd" clip-rule="evenodd" d="M182 158.684C188.627 158.684 194 153.311 194 146.684C194 140.057 188.627 134.684 182 134.684C175.373 134.684 170 140.057 170 146.684C170 153.311 175.373 158.684 182 158.684Z" fill="#C5CFD6"/>
</g>
<g clip-path="url(#clip17)">
<rect x="161" y="175.684" width="67" height="42" rx="4" fill="white"/>
<g clip-path="url(#clip18)">
<rect x="170" y="188.284" width="9" height="6.3" rx="3" fill="#DDE3E9"/>
<rect x="170" y="198.784" width="6.0411" height="6.3" rx="3" fill="#AFB9C5"/>
</g>
</g>
<g clip-path="url(#clip19)">
<rect x="161" y="225.684" width="67" height="42" rx="4" fill="white"/>
<g clip-path="url(#clip20)">
<rect x="200" y="238.284" width="9" height="6.3" rx="3" fill="#DDE3E9"/>
</g>
<path fill-rule="evenodd" clip-rule="evenodd" d="M182 258.684C188.627 258.684 194 253.311 194 246.684C194 240.057 188.627 234.684 182 234.684C175.373 234.684 170 240.057 170 246.684C170 253.311 175.373 258.684 182 258.684Z" fill="#C5CFD6"/>
</g>
</g>
</g>
<g clip-path="url(#clip21)">
<rect x="178" y="52.6841" width="232" height="239" rx="8" fill="#F2F2F2"/>
<rect x="350.442" y="82.3865" width="48.4776" height="55.9509" rx="8" fill="white"/>
<path fill-rule="evenodd" clip-rule="evenodd" d="M374.681 114.852C380.8 114.852 385.761 109.903 385.761 103.8C385.761 97.6957 380.8 92.7476 374.681 92.7476C368.561 92.7476 363.6 97.6957 363.6 103.8C363.6 109.903 368.561 114.852 374.681 114.852Z" fill="#DDE3E9"/>
<rect x="357.367" y="117.615" width="34.6269" height="4.14451" rx="2.07225" fill="#DDE3E9"/>
<rect x="362.907" y="124.522" width="23.5463" height="4.1445" rx="2.07225" fill="#DDE3E9"/>
<path d="M178 60.6841C178 56.2658 181.582 52.6841 186 52.6841H402C406.418 52.6841 410 56.2658 410 60.6841V79.6841H178V60.6841Z" fill="#C5CFD6"/>
<path fill-rule="evenodd" clip-rule="evenodd" d="M191 70.6841C193.209 70.6841 195 68.8932 195 66.6841C195 64.4749 193.209 62.6841 191 62.6841C188.791 62.6841 187 64.4749 187 66.6841C187 68.8932 188.791 70.6841 191 70.6841Z" fill="#F2F2F2"/>
<path fill-rule="evenodd" clip-rule="evenodd" d="M203 70.6841C205.209 70.6841 207 68.8932 207 66.6841C207 64.4749 205.209 62.6841 203 62.6841C200.791 62.6841 199 64.4749 199 66.6841C199 68.8932 200.791 70.6841 203 70.6841Z" fill="#F2F2F2"/>
<path fill-rule="evenodd" clip-rule="evenodd" d="M215 70.6841C217.209 70.6841 219 68.8932 219 66.6841C219 64.4749 217.209 62.6841 215 62.6841C212.791 62.6841 211 64.4749 211 66.6841C211 68.8932 212.791 70.6841 215 70.6841Z" fill="#F2F2F2"/>
<g clip-path="url(#clip22)">
<rect x="350.442" y="143.863" width="48.4776" height="134.006" rx="8" fill="white"/>
<g clip-path="url(#clip23)">
<rect x="368.442" y="161.863" width="12" height="26" rx="4" fill="#DDE3E9"/>
<rect x="368.442" y="195.863" width="12" height="25" rx="4" fill="#AFB9C5"/>
<rect x="368.442" y="228.863" width="12" height="25" rx="4" fill="#DDE3E9"/>
<rect x="368.442" y="261.863" width="12" height="25" rx="4" fill="#C5CFD6"/>
</g>
</g>
<g clip-path="url(#clip24)">
<g clip-path="url(#clip25)">
<rect x="194" y="96.6841" width="122" height="47" rx="4" fill="white"/>
<g clip-path="url(#clip26)">
<rect x="203" y="110.784" width="64" height="7.05" rx="3" fill="#DDE3E9"/>
<rect x="203" y="122.534" width="42.9589" height="7.05" rx="3" fill="#DDE3E9"/>
</g>
</g>
<g clip-path="url(#clip27)">
<rect x="194" y="151.684" width="122" height="39" rx="4" fill="white"/>
<g clip-path="url(#clip28)">
<rect x="203" y="163.384" width="64" height="5.85" rx="2.925" fill="#DDE3E9"/>
<rect x="203" y="173.134" width="42.9589" height="5.85" rx="2.925" fill="#DDE3E9"/>
</g>
</g>
<g clip-path="url(#clip29)">
<rect x="194" y="198.684" width="122" height="39" rx="4" fill="white"/>
<g clip-path="url(#clip30)">
<rect x="203" y="210.384" width="64" height="5.85" rx="2.925" fill="#DDE3E9"/>
<rect x="203" y="220.134" width="42.9589" height="5.85" rx="2.925" fill="#DDE3E9"/>
</g>
</g>
<g clip-path="url(#clip31)">
<rect x="194" y="245.684" width="122" height="39" rx="4" fill="white"/>
<g clip-path="url(#clip32)">
<rect x="203" y="257.384" width="64" height="5.85" rx="2.925" fill="#DDE3E9"/>
<rect x="203" y="267.134" width="42.9589" height="5.85" rx="2.925" fill="#DDE3E9"/>
</g>
</g>
</g>
</g>
<path fill-rule="evenodd" clip-rule="evenodd" d="M467.605 170.016C464.875 168.168 461.243 167.684 457.976 167.684C445.212 167.684 433.215 172.41 422.852 179.452C417.173 183.31 412.092 188.223 407.607 193.339C405.019 196.292 402.71 199.487 401.076 203.04C399.973 205.438 399.216 207.937 398.703 210.514C398.078 213.655 397.581 216.86 397.356 220.053C397.268 221.31 396.536 227.983 398.631 228.096C398.619 228.26 398.616 228.417 398.629 228.558C394.08 235.656 391.27 243.974 388.663 251.861C386.396 258.724 384.375 265.646 383.064 272.746C381.337 282.093 380.203 291.582 379.663 301.064C379.547 303.102 379.468 305.14 379.399 307.181C379.341 308.921 379.283 310.662 379.225 312.402C379.161 314.353 378.817 316.598 379.128 318.537C379.399 320.226 380.863 319.97 380.928 318.29C381.006 316.261 380.993 314.227 381.082 312.196C381.201 309.501 381.323 306.806 381.455 304.111C382.375 285.393 385.826 266.951 392.196 249.27C394.774 242.114 397.728 235.341 401.524 228.722C404.862 222.903 408.877 217.269 412.981 212.022C416.97 206.923 421.117 201.941 426.005 197.621C429.971 194.115 434.333 191.061 438.818 188.219C444.514 184.61 450.199 181.088 456.369 178.318C459.576 176.878 462.844 175.588 466.076 174.207C466.658 173.958 467.281 173.717 467.841 173.429C469.706 172.469 469.092 171.022 467.605 170.016Z" fill="#20BDFF"/>
<path fill-rule="evenodd" clip-rule="evenodd" d="M415.501 235.684C420.705 235.684 425.337 236.364 430.132 238.444C434.272 240.239 438.045 242.616 441.707 245.203C446.859 248.842 450.918 253.078 453.758 258.69C455.455 262.042 456.7 266.786 455.56 270.443C454.218 274.749 450.532 278.341 445.677 277.582C442.675 277.113 439.923 275.115 437.641 273.234C434.911 270.984 432.726 268.278 430.922 265.273C427.979 260.371 426.249 254.83 423.749 249.707C422.563 247.276 421.417 244.828 419.996 242.518C419.292 241.373 418.543 240.24 417.476 239.39C416.905 238.935 414.498 238.148 415.419 237.127C401.921 237.305 389.964 247.729 387.373 260.633C387.132 261.835 386.943 263.048 386.744 264.258C386.618 265.022 386.669 267.84 385.99 268.328C384.492 269.405 385.121 266.133 385.186 265.662C385.352 264.445 385.529 263.229 385.715 262.015C386.727 255.411 389.65 249.272 394.526 244.562C400.101 239.177 407.623 235.684 415.501 235.684Z" fill="#0096D5"/>
<path fill-rule="evenodd" clip-rule="evenodd" d="M195.123 69.8505C208.029 91.5029 223.061 112.468 232.089 136.142C231.725 133.352 231.339 130.564 230.907 127.781C228.617 113.025 225.77 98.3771 222.779 83.7471C221.255 76.2982 219.644 68.8764 217.991 61.4551C217.103 57.4692 216.225 53.4808 215.318 49.4986C215.098 48.5334 214.909 46.8488 214.634 45.1414C223.407 73.9301 231.867 102.741 238.056 132.222C238.867 136.091 239.559 139.953 240.125 143.808C240.319 142.929 240.509 142.049 240.718 141.172C243.222 130.657 246.978 120.226 251.45 110.395C253.588 105.693 256.044 101.094 258.935 96.8091C260.738 94.1381 264.99 90.9629 266.635 88.2274C257.639 104.726 254.391 125.369 249.198 143.306C247.93 147.683 246.654 152.053 245.404 156.431C253.237 140.723 265.389 127.816 282.286 122.224C261.833 135.737 249.566 159.403 241.299 183.607C241.272 183.894 241.24 184.181 241.212 184.468C243.644 179.852 246.708 175.676 250.861 172.751C259.75 166.49 269.61 168.314 278.232 173.685C271.465 169.383 259.235 173.3 253.542 177.672C249.466 180.802 245.982 185 242.957 189.096C242.232 190.078 241.243 191.224 240.199 192.446C238.734 201.954 236.347 211.397 232.968 220.764C233.526 218.075 233.122 213.775 233.277 211.771C233.294 211.554 233.307 211.337 233.324 211.121C232.81 213.172 232.314 215.199 231.836 217.194C232.786 213.387 233.302 209.413 233.705 205.398C233.809 203.672 233.91 201.947 234.017 200.222C233.984 196.947 233.849 193.659 233.621 190.366C232.812 187.166 231.906 184.147 231.159 181.637C228.464 172.579 224.513 163.901 219.65 155.805C215.213 148.417 209.902 141.725 203.77 135.673C200.465 132.412 197.006 129.305 193.595 126.156C192.362 125.017 190.158 122.218 188.251 120.758C202.136 128.413 216.426 136.694 226.555 149.027C225.367 144.467 224.078 139.971 222.713 135.566C215.792 113.216 207.052 90.0514 195.123 69.8505Z" fill="#DDE3E9"/>
<path fill-rule="evenodd" clip-rule="evenodd" d="M208.994 192.416C208.994 217.237 210.96 237.358 237.343 237.358C263.726 237.358 265.692 217.237 265.692 192.416" fill="#C5CFD6"/>
<rect x="350.851" y="22.9756" width="4.14857" height="17.2857" rx="2.07429" fill="#DDE3E9"/>
<rect x="360.531" y="11.9126" width="4.14857" height="28.3486" rx="2.07429" fill="#DDE3E9"/>
<rect x="370.211" y="6.38135" width="4.14857" height="33.88" rx="2.07429" fill="#DDE3E9"/>
<rect x="379.891" y="11.9126" width="4.14857" height="28.3486" rx="2.07429" fill="#DDE3E9"/>
<rect x="389.571" y="0.849854" width="4.14857" height="39.4114" rx="2.07429" fill="#C5CFD6"/>
<path fill-rule="evenodd" clip-rule="evenodd" d="M10.6685 212.604C10.6685 204.902 16.8927 198.598 24.4971 198.598V212.604L15.0466 222.798C12.3584 220.306 10.6685 216.65 10.6685 212.604Z" fill="#F2F2F2"/>
<path fill-rule="evenodd" clip-rule="evenodd" d="M24.1313 212.427H38.0962C38.0962 216.037 36.6236 219.419 34.2956 221.877C31.7352 224.565 28.0889 226.255 24.1313 226.255C20.4857 226.255 17.1488 224.797 14.5876 222.492L24.1313 212.427Z" fill="#AFB9C5"/>
<path fill-rule="evenodd" clip-rule="evenodd" d="M38.3257 212.427C38.3257 204.823 32.1014 198.598 24.4971 198.598V212.427H38.3257ZM17.5828 198.598L23.1142 211.044L10.6685 205.512C11.8993 202.286 14.6629 199.829 17.5828 198.598Z" fill="#C5CFD6"/>
<path fill-rule="evenodd" clip-rule="evenodd" d="M460.627 218.773C459.298 220.184 457.416 221.07 455.323 221.07C451.301 221.07 448.04 217.819 448.04 213.81C448.04 209.8 451.301 206.55 455.323 206.55V193.067C443.88 193.067 434.514 202.403 434.514 213.81C434.514 225.216 443.88 234.552 455.323 234.552C461.333 234.552 466.766 232.018 470.468 227.985L460.627 218.773Z" fill="#F2F2F2"/>
<path fill-rule="evenodd" clip-rule="evenodd" d="M455.257 193.067V206.55C459.267 206.55 462.517 209.8 462.517 213.81H476C476 202.403 466.664 193.067 455.257 193.067Z" fill="#AFB9C5"/>
<path fill-rule="evenodd" clip-rule="evenodd" d="M462.238 213.81C462.238 216.165 461.129 218.259 459.406 219.611L467.884 230.404C472.819 226.54 476 220.551 476 213.81H462.238Z" fill="#C5CFD6"/>
<path fill-rule="evenodd" clip-rule="evenodd" d="M328.761 28.1637C327.739 29.2451 326.291 29.9242 324.681 29.9242C321.587 29.9242 319.079 27.4322 319.079 24.3582C319.079 21.2842 321.587 18.7922 324.681 18.7922V8.45532C315.879 8.45532 308.674 15.6132 308.674 24.3582C308.674 33.1032 315.879 40.261 324.681 40.261C329.305 40.261 333.483 38.3177 336.331 35.2262L328.761 28.1637Z" fill="#F2F2F2"/>
<path fill-rule="evenodd" clip-rule="evenodd" d="M324.577 8.45532V18.7922C327.651 18.7922 330.143 21.2842 330.143 24.3582H340.48C340.48 15.6132 333.322 8.45532 324.577 8.45532Z" fill="#AFB9C5"/>
<path fill-rule="evenodd" clip-rule="evenodd" d="M330.159 24.3582C330.159 26.1249 329.327 27.6954 328.034 28.7094L334.393 36.8039C338.094 33.906 340.48 29.4139 340.48 24.3582H330.159Z" fill="#C5CFD6"/>
<path fill-rule="evenodd" clip-rule="evenodd" d="M77.0505 40.2518C77.0478 40.2587 77.045 40.2656 77.0408 40.2739C77.045 40.267 77.0505 40.2393 77.0505 40.2518Z" fill="#C5CFD6"/>
<path fill-rule="evenodd" clip-rule="evenodd" d="M77.0441 40.2623C77.0441 40.2637 77.0427 40.2664 77.0427 40.2692C77.0427 40.2623 77.0551 40.2415 77.0441 40.2623Z" fill="#C5CFD6"/>
<path fill-rule="evenodd" clip-rule="evenodd" d="M77.0921 40.1453C77.0824 40.173 77.07 40.1992 77.0589 40.2269C77.0644 40.2131 77.07 40.202 77.0755 40.1882C76.9317 40.5477 77.023 40.314 77.0921 40.1453Z" fill="#C5CFD6"/>
<path fill-rule="evenodd" clip-rule="evenodd" d="M77.0611 40.2286C77.0556 40.241 77.0501 40.2549 77.0446 40.2673C77.0045 40.3447 77.0611 40.2286 77.0611 40.2286Z" fill="#C5CFD6"/>
<path fill-rule="evenodd" clip-rule="evenodd" d="M77.045 40.2626C77.045 40.2613 77.045 40.2613 77.0464 40.2599C77.045 40.2613 77.045 40.2613 77.045 40.2626Z" fill="#C5CFD6"/>
<path fill-rule="evenodd" clip-rule="evenodd" d="M77.0384 40.2726C77.0301 40.2892 77.0771 40.2089 77.0384 40.2726V40.2726Z" fill="#C5CFD6"/>
<path fill-rule="evenodd" clip-rule="evenodd" d="M77.0443 40.2626L77.0471 40.2599C77.0457 40.2613 77.0457 40.2626 77.0443 40.2626Z" fill="#C5CFD6"/>
<rect x="43.8572" y="4.30688" width="65.6857" height="43.56" rx="4" fill="#DDE3E9"/>
<path fill-rule="evenodd" clip-rule="evenodd" d="M68.7487 16.7524L49.3887 47.8667H88.1087L68.7487 16.7524Z" fill="#AFB9C5"/>
<path fill-rule="evenodd" clip-rule="evenodd" d="M87.763 25.0496L70.823 47.8667H104.703L87.763 25.0496Z" fill="#C5CFD6"/>
<path fill-rule="evenodd" clip-rule="evenodd" d="M95.0229 25.05C98.4597 25.05 101.246 22.2639 101.246 18.8271C101.246 15.3903 98.4597 12.6042 95.0229 12.6042C91.5861 12.6042 88.8 15.3903 88.8 18.8271C88.8 22.2639 91.5861 25.05 95.0229 25.05Z" fill="white"/>
<path fill-rule="evenodd" clip-rule="evenodd" d="M406.852 335.492C406.855 335.498 406.858 335.505 406.862 335.514C406.858 335.507 406.852 335.479 406.852 335.492Z" fill="#C5CFD6"/>
<path fill-rule="evenodd" clip-rule="evenodd" d="M406.859 335.502C406.859 335.503 406.86 335.506 406.86 335.509C406.86 335.502 406.847 335.481 406.859 335.502Z" fill="#C5CFD6"/>
<path fill-rule="evenodd" clip-rule="evenodd" d="M406.81 335.385C406.82 335.413 406.833 335.439 406.844 335.467C406.838 335.453 406.833 335.442 406.827 335.428C406.971 335.787 406.88 335.554 406.81 335.385Z" fill="#C5CFD6"/>
<path fill-rule="evenodd" clip-rule="evenodd" d="M406.841 335.468C406.847 335.481 406.853 335.495 406.858 335.507C406.898 335.584 406.841 335.468 406.841 335.468Z" fill="#C5CFD6"/>
<path fill-rule="evenodd" clip-rule="evenodd" d="M406.858 335.502C406.858 335.501 406.858 335.501 406.856 335.5C406.858 335.501 406.858 335.501 406.858 335.502Z" fill="#C5CFD6"/>
<path fill-rule="evenodd" clip-rule="evenodd" d="M406.864 335.512C406.872 335.529 406.825 335.449 406.864 335.512V335.512Z" fill="#C5CFD6"/>
<path fill-rule="evenodd" clip-rule="evenodd" d="M406.858 335.502L406.856 335.5C406.857 335.501 406.857 335.502 406.858 335.502Z" fill="#C5CFD6"/>
<rect width="98.1828" height="64.9943" rx="4" transform="matrix(-1 0 0 1 455.948 282.261)" fill="#DDE3E9"/>
<path fill-rule="evenodd" clip-rule="evenodd" d="M419.492 300.93L447.879 347.255H391.106L419.492 300.93Z" fill="#AFB9C5"/>
<path fill-rule="evenodd" clip-rule="evenodd" d="M390.224 313.338L415.32 347.255H365.129L390.224 313.338Z" fill="#C5CFD6"/>
<path fill-rule="evenodd" clip-rule="evenodd" d="M379.546 313.375C374.39 313.375 370.211 309.196 370.211 304.041C370.211 298.886 374.39 294.707 379.546 294.707C384.701 294.707 388.88 298.886 388.88 304.041C388.88 309.196 384.701 313.375 379.546 313.375Z" fill="white"/>
</g>
<path fill-rule="evenodd" clip-rule="evenodd" d="M260.727 145.247C263.655 141.99 265.637 138 265.306 133.528C264.352 120.644 245.42 123.478 241.737 129.981C238.055 136.484 238.492 152.979 243.252 154.141C245.15 154.605 249.193 153.469 253.309 151.119L250.725 168.432H265.978L260.727 145.247Z" fill="#FFE2C7"/>
<path fill-rule="evenodd" clip-rule="evenodd" d="M250.431 122.486C252.441 122.174 257.853 121.959 258.852 121.959C259.49 121.959 260.181 122.097 260.559 121.542C260.868 121.088 260.755 120.319 260.847 119.792C260.954 119.18 261.106 118.575 261.26 117.972C261.699 116.256 262.362 114.623 263.289 113.09C265.029 110.214 267.579 107.961 270.797 106.65C274.351 105.203 278.373 104.872 282.195 105.165C286.286 105.479 289.99 106.759 293.852 107.963C297.533 109.11 301.388 109.562 305.238 109.001C309.117 108.437 312.047 106.445 315.319 104.555C318.668 102.62 322.496 101.354 326.455 101.645C330.151 101.917 333.558 103.362 336.614 105.294C339.473 107.101 341.833 109.275 343.165 112.335C344.598 115.626 344.596 119.239 342.24 122.148C338.824 126.364 332.483 127.454 327.208 127.346C324.157 127.283 321.16 126.756 318.279 125.796C314.437 124.516 311.117 122.346 307.523 120.585C305.836 119.759 304.092 119.081 302.265 118.592C300.491 118.117 298.744 117.9 297.139 118.915C295.44 119.988 293.918 121.043 291.975 121.715C290.111 122.36 288.136 122.721 286.15 122.706C282.286 122.678 278.476 121.537 274.723 120.773C271.663 120.15 268.388 119.529 265.268 120.128C263.966 120.378 262.064 120.894 261.594 122.176C269.508 123.535 272.617 132.808 270.386 139.616C269.181 143.29 261.942 147.585 259.128 145.654C257.345 144.43 258.427 142.823 259.128 141.763C260.469 139.732 260.928 137.123 258.446 135.709C256.304 134.489 254.053 137.385 254.01 137.382C253.422 137.338 248.336 134.613 244.832 130.637C241.375 130.831 240.851 128.672 241.676 126.906C242.502 125.14 247.653 122.918 250.431 122.486Z" fill="#191847"/>
<path d="M272.333 323.161C245.307 323.161 223.399 303.349 223.399 278.91C223.399 254.47 245.307 234.658 272.333 234.658C299.358 234.658 321.267 254.47 321.267 278.91C321.267 303.349 299.358 323.161 272.333 323.161Z" fill="#C5CFD6"/>
<path fill-rule="evenodd" clip-rule="evenodd" d="M179.861 316.333C188.004 299.26 193.892 284.393 196.256 276.55C200.303 263.119 203.382 251.301 204.16 246.888C206.016 236.364 189.885 235.751 187.753 240.981C184.526 248.897 178.893 274.907 172.124 314.195L179.861 316.333ZM274.31 262.752C266.839 259.955 240.677 251.2 228.059 248.723C224.433 248.011 220.919 247.35 217.615 246.753C207.794 244.976 202.705 261.761 212.164 263.051C235.72 266.263 269.115 269.58 271.973 269.952C275.979 270.474 279.005 264.511 274.31 262.752Z" fill="#FFE2C7"/>
<path fill-rule="evenodd" clip-rule="evenodd" d="M211.587 242.134L251.997 222.645V218.403H247.191C208.096 227.841 188.119 233.889 187.259 236.548C187.249 236.576 187.241 236.605 187.233 236.633C187.214 236.658 187.194 236.683 187.175 236.707C179.427 246.802 174.787 296.084 173.264 299.775L188.111 301.873C193.79 281.922 211.96 268.023 211.477 244.128C211.607 243.427 211.64 242.762 211.587 242.134Z" fill="#0495D1"/>
<path fill-rule="evenodd" clip-rule="evenodd" d="M248.639 253.708C252.336 253.007 255.741 252.381 258.655 251.897C277.474 248.769 282.962 239.226 279.718 218.403H245.043C239.379 219.944 209.943 231.639 194.67 237.859C184.562 241.976 187.748 256.817 193.472 260.679C193.503 260.916 193.606 261.077 193.79 261.149C224.583 273.24 248.943 266.896 257.081 268.923L260.845 257.674L248.639 253.708Z" fill="#20BDFF"/>
<path fill-rule="evenodd" clip-rule="evenodd" d="M272.68 260.728C274.527 260.764 275.825 260.946 276.574 261.273C277.485 261.671 278.723 262.419 280.289 263.517C279.657 264.681 273.977 275.144 263.249 294.907C260.359 294.653 259.293 293.605 260.052 291.762C260.811 289.92 261.427 288.383 261.901 287.152L263.917 269.983C263.956 269.653 264.249 269.374 264.572 269.36C264.577 269.36 264.583 269.359 264.588 269.359L267.162 269.323C268.735 267.998 269.797 266.826 270.349 265.809C270.798 264.982 271.114 263.709 271.299 261.988L271.299 261.988C271.37 261.327 271.951 260.764 272.597 260.729C272.625 260.728 272.653 260.727 272.68 260.728Z" fill="#E4E4E4"/>
<path fill-rule="evenodd" clip-rule="evenodd" d="M183.567 313.168C184.278 314.966 184.633 316.311 184.633 317.204C184.633 318.289 184.442 319.874 184.061 321.957C182.731 321.957 170.783 321.957 148.217 321.957C147.286 319.039 147.823 317.464 149.83 317.232C151.837 316.999 153.504 316.789 154.831 316.602L171.491 309.566C171.812 309.43 172.187 309.567 172.33 309.87C172.333 309.875 172.335 309.881 172.337 309.886L173.408 312.347C175.266 313.168 176.776 313.579 177.937 313.579C178.881 313.579 180.184 313.218 181.847 312.495L181.847 312.495C182.485 312.218 183.239 312.484 183.532 313.088C183.545 313.114 183.556 313.141 183.567 313.168Z" fill="#E4E4E4"/>
<path fill-rule="evenodd" clip-rule="evenodd" d="M212.595 201.917L189.568 192.337C185.534 188.529 181.639 185.634 177.882 183.654C176.759 183.315 174.84 183.212 176.888 186.046C178.935 188.879 180.954 191.946 180.136 192.939C179.318 193.932 176.948 192.836 176.012 194.451C175.387 195.528 179.382 196.815 187.997 198.314L205.243 210.841L212.595 201.917ZM305.692 204.556L292.669 207.004C305.765 230.126 312.789 242.381 313.739 243.768C315.877 246.89 313.882 252.61 313.145 255.623C317.769 256.643 315.945 250.05 321.796 251.427C327.136 252.683 331.664 255.907 336.643 251.559C337.256 251.024 337.704 249.353 335.616 248.496C330.416 246.361 322.733 242.363 321.488 240.811C319.789 238.694 314.523 226.609 305.692 204.556Z" fill="#FFE2C7"/>
<path fill-rule="evenodd" clip-rule="evenodd" d="M257.274 158.397L251.779 157.504C239.81 168.504 234.926 194.93 226.949 198.428C219.407 201.736 208.716 198.535 196.009 194.214L192.117 202.451C203.663 214.285 228.261 224.283 238.232 218.576C254.172 209.45 257.852 176.857 257.274 158.397Z" fill="#EE6021"/>
<path fill-rule="evenodd" clip-rule="evenodd" d="M281.23 223.822C259.196 223.822 242.988 223.822 232.607 223.822C230.385 223.822 230.803 220.782 231.125 219.248C234.831 201.548 249.301 182.467 249.301 157.271L263.327 155.187C274.927 172.862 278.939 194.624 281.23 223.822Z" fill="#DDE3E9"/>
<path fill-rule="evenodd" clip-rule="evenodd" d="M286.08 205.9C295.992 222.839 304.323 235.034 311.075 242.485L321.267 240.594C314.701 202.021 295.69 173.552 264.231 155.187H261.7L258.678 155.187C246.087 195.848 242.616 222.941 248.265 236.465H292.033C291.341 226.569 289.121 216.104 286.08 205.9Z" fill="#F08700"/>
<defs>
<clipPath id="clip0">
<rect width="269.849" height="89.9457" fill="white" transform="translate(114.541 228.519)"/>
</clipPath>
<clipPath id="clip1">
<rect width="110" height="210" fill="white" transform="translate(87 16.6841)"/>
</clipPath>
<clipPath id="clip2">
<rect width="82" height="204" fill="white" transform="translate(101 44.6841)"/>
</clipPath>
<clipPath id="clip3">
<rect width="82" height="54" fill="white" transform="translate(101 44.6841)"/>
</clipPath>
<clipPath id="clip4">
<rect width="24" height="21.6" fill="white" transform="translate(140 60.884)"/>
</clipPath>
<clipPath id="clip5">
<rect width="82" height="42" fill="white" transform="translate(101 106.684)"/>
</clipPath>
<clipPath id="clip6">
<rect width="24" height="16.8" fill="white" transform="translate(140 119.284)"/>
</clipPath>
<clipPath id="clip7">
<rect width="82" height="42" fill="white" transform="translate(101 156.684)"/>
</clipPath>
<clipPath id="clip8">
<rect width="24" height="16.8" fill="white" transform="translate(140 169.284)"/>
</clipPath>
<clipPath id="clip9">
<rect width="82" height="42" fill="white" transform="translate(101 206.684)"/>
</clipPath>
<clipPath id="clip10">
<rect width="24" height="16.8" fill="white" transform="translate(140 219.284)"/>
</clipPath>
<clipPath id="clip11">
<rect width="143" height="209" fill="white" transform="translate(99 35.6841)"/>
</clipPath>
<clipPath id="clip12">
<rect width="67" height="204" fill="white" transform="translate(161 63.6841)"/>
</clipPath>
<clipPath id="clip13">
<rect width="67" height="54" fill="white" transform="translate(161 63.6841)"/>
</clipPath>
<clipPath id="clip14">
<rect width="9" height="21.6" fill="white" transform="translate(170 79.884)"/>
</clipPath>
<clipPath id="clip15">
<rect width="67" height="42" fill="white" transform="translate(161 125.684)"/>
</clipPath>
<clipPath id="clip16">
<rect width="9" height="16.8" fill="white" transform="translate(200 138.284)"/>
</clipPath>
<clipPath id="clip17">
<rect width="67" height="42" fill="white" transform="translate(161 175.684)"/>
</clipPath>
<clipPath id="clip18">
<rect width="9" height="16.8" fill="white" transform="translate(170 188.284)"/>
</clipPath>
<clipPath id="clip19">
<rect width="67" height="42" fill="white" transform="translate(161 225.684)"/>
</clipPath>
<clipPath id="clip20">
<rect width="9" height="16.8" fill="white" transform="translate(200 238.284)"/>
</clipPath>
<clipPath id="clip21">
<rect width="232" height="239" fill="white" transform="translate(178 52.6841)"/>
</clipPath>
<clipPath id="clip22">
<rect width="48.4776" height="134.006" fill="white" transform="translate(350.442 143.863)"/>
</clipPath>
<clipPath id="clip23">
<rect width="12" height="158" fill="white" transform="translate(368.442 161.863)"/>
</clipPath>
<clipPath id="clip24">
<rect width="122" height="282" fill="white" transform="translate(194 96.6841)"/>
</clipPath>
<clipPath id="clip25">
<rect width="122" height="47" fill="white" transform="translate(194 96.6841)"/>
</clipPath>
<clipPath id="clip26">
<rect width="64" height="18.8" fill="white" transform="translate(203 110.784)"/>
</clipPath>
<clipPath id="clip27">
<rect width="122" height="39" fill="white" transform="translate(194 151.684)"/>
</clipPath>
<clipPath id="clip28">
<rect width="64" height="15.6" fill="white" transform="translate(203 163.384)"/>
</clipPath>
<clipPath id="clip29">
<rect width="122" height="39" fill="white" transform="translate(194 198.684)"/>
</clipPath>
<clipPath id="clip30">
<rect width="64" height="15.6" fill="white" transform="translate(203 210.384)"/>
</clipPath>
<clipPath id="clip31">
<rect width="122" height="39" fill="white" transform="translate(194 245.684)"/>
</clipPath>
<clipPath id="clip32">
<rect width="64" height="15.6" fill="white" transform="translate(203 257.384)"/>
</clipPath>
</defs>
</svg>
