<svg width="67" height="64" viewBox="0 0 67 64" fill="none" xmlns="http://www.w3.org/2000/svg">
<path d="M44.375 26C52.5 26 59 32.5 59 40.625C59 43.485 58.1875 46.1825 56.7575 48.425L66.7675 58.5L62.25 63.0175L52.11 53.04C49.8675 54.4375 47.2025 55.25 44.375 55.25C36.25 55.25 29.75 48.75 29.75 40.625C29.75 32.5 36.25 26 44.375 26ZM44.375 32.5C42.2201 32.5 40.1535 33.356 38.6298 34.8798C37.106 36.4035 36.25 38.4701 36.25 40.625C36.25 42.7799 37.106 44.8465 38.6298 46.3702C40.1535 47.894 42.2201 48.75 44.375 48.75C46.5299 48.75 48.5965 47.894 50.1202 46.3702C51.644 44.8465 52.5 42.7799 52.5 40.625C52.5 38.4701 51.644 36.4035 50.1202 34.8798C48.5965 33.356 46.5299 32.5 44.375 32.5ZM26.5 0C29.9478 0 33.2544 1.36964 35.6924 3.80761C38.1304 6.24558 39.5 9.55218 39.5 13C39.5 15.9575 38.4925 18.6875 36.835 20.8975C34.04 21.9375 31.5375 23.595 29.4575 25.675L26.5 26C23.0522 26 19.7456 24.6304 17.3076 22.1924C14.8696 19.7544 13.5 16.4478 13.5 13C13.5 9.55218 14.8696 6.24558 17.3076 3.80761C19.7456 1.36964 23.0522 0 26.5 0V0ZM0.5 52V45.5C0.5 38.61 11.2575 32.955 24.875 32.5C23.835 35.035 23.25 37.765 23.25 40.625C23.25 44.8175 24.485 48.75 26.5 52H0.5Z" fill="#20BDFF"/>
</svg>
