<svg width="61" height="62" viewBox="0 0 61 62" fill="none" xmlns="http://www.w3.org/2000/svg">
<path d="M59.8291 28.225H31.555V36.6425H51.6275C50.61 48.39 40.8358 53.4158 31.5858 53.4158C19.7767 53.4158 9.41665 44.1041 9.41665 31C9.41665 18.3583 19.2833 8.58413 31.6167 8.58413C41.1441 8.58413 46.725 14.6583 46.725 14.6583L52.5833 8.55329C52.5833 8.55329 45.06 0.166626 31.3083 0.166626C13.795 0.166626 0.259155 14.9666 0.259155 31C0.259155 46.5708 12.9933 61.8333 31.7708 61.8333C48.2666 61.8333 60.2916 50.5175 60.2916 33.8058C60.2916 30.26 59.8291 28.225 59.8291 28.225Z" fill="#20BDFF"/>
</svg>
