<svg width="58" height="66" viewBox="0 0 58 66" fill="none" xmlns="http://www.w3.org/2000/svg">
<path d="M41.545 8.2675V57.0175C41.545 62.445 45.25 65.5 49.3125 65.5C53.0175 65.5 57.08 62.9325 57.08 57.0175V8.625C57.08 3.62 53.375 0.5 49.3125 0.5C45.25 0.5 41.545 3.945 41.545 8.2675ZM21.2325 33V57.0175C21.2325 62.4775 25.0025 65.5 29 65.5C32.705 65.5 36.7675 62.9325 36.7675 57.0175V33.3575C36.7675 28.3525 33.0625 25.2325 29 25.2325C24.9375 25.2325 21.2325 28.6775 21.2325 33ZM8.68754 49.9975C12.9775 49.9975 16.455 53.475 16.455 57.7325C16.455 59.7926 15.6367 61.7683 14.18 63.225C12.7233 64.6816 10.7476 65.5 8.68754 65.5C6.62748 65.5 4.65178 64.6816 3.19509 63.225C1.7384 61.7683 0.920044 59.7926 0.920044 57.7325C0.920044 53.475 4.39754 49.9975 8.68754 49.9975Z" fill="#20BDFF"/>
</svg>
