<svg width="75" height="71" viewBox="0 0 75 71" fill="none" xmlns="http://www.w3.org/2000/svg">
<path d="M49.025 3.08337H61.975C66.9084 3.08337 70.9167 7.09171 70.9167 12.025V24.975C70.9167 27.3465 69.9746 29.6209 68.2978 31.2978C66.6209 32.9746 64.3465 33.9167 61.975 33.9167H49.025C44.0917 33.9167 40.0834 29.9084 40.0834 24.975V12.025C40.0834 9.65356 41.0254 7.37922 42.7023 5.70233C44.3792 4.02544 46.6536 3.08337 49.025 3.08337ZM48.7167 6.16671C47.2448 6.16671 45.8331 6.75144 44.7923 7.79226C43.7514 8.83309 43.1667 10.2448 43.1667 11.7167V25.2834C43.1667 28.3513 45.6488 30.8334 48.7167 30.8334H62.2834C63.7553 30.8334 65.167 30.2486 66.2078 29.2078C67.2486 28.167 67.8334 26.7553 67.8334 25.2834V11.7167C67.8334 8.64879 65.3513 6.16671 62.2834 6.16671H48.7167ZM63.5938 8.47921C64.1049 8.47921 64.595 8.68224 64.9564 9.04364C65.3178 9.40504 65.5209 9.8952 65.5209 10.4063C65.5209 10.9174 65.3178 11.4075 64.9564 11.7689C64.595 12.1303 64.1049 12.3334 63.5938 12.3334C63.0827 12.3334 62.5925 12.1303 62.2311 11.7689C61.8697 11.4075 61.6667 10.9174 61.6667 10.4063C61.6667 9.8952 61.8697 9.40504 62.2311 9.04364C62.5925 8.68224 63.0827 8.47921 63.5938 8.47921ZM55.5 10.7917C57.5444 10.7917 59.5051 11.6038 60.9507 13.0494C62.3962 14.495 63.2084 16.4557 63.2084 18.5C63.2084 20.5444 62.3962 22.5051 60.9507 23.9507C59.5051 25.3962 57.5444 26.2084 55.5 26.2084C53.4557 26.2084 51.495 25.3962 50.0494 23.9507C48.6038 22.5051 47.7917 20.5444 47.7917 18.5C47.7917 16.4557 48.6038 14.495 50.0494 13.0494C51.495 11.6038 53.4557 10.7917 55.5 10.7917ZM55.5 13.875C54.2734 13.875 53.097 14.3623 52.2297 15.2297C51.3623 16.097 50.875 17.2734 50.875 18.5C50.875 19.7267 51.3623 20.9031 52.2297 21.7704C53.097 22.6378 54.2734 23.125 55.5 23.125C56.7267 23.125 57.9031 22.6378 58.7704 21.7704C59.6378 20.9031 60.125 19.7267 60.125 18.5C60.125 17.2734 59.6378 16.097 58.7704 15.2297C57.9031 14.3623 56.7267 13.875 55.5 13.875Z" fill="#F08700"/>
<path d="M67.0833 37.75C67.9232 37.75 68.7286 38.0836 69.3225 38.6775C69.9164 39.2714 70.25 40.0768 70.25 40.9167V63.0833C70.25 63.9232 69.9164 64.7286 69.3225 65.3225C68.7286 65.9164 67.9232 66.25 67.0833 66.25H44.9167C44.0768 66.25 43.2714 65.9164 42.6775 65.3225C42.0836 64.7286 41.75 63.9232 41.75 63.0833V40.9167C41.75 40.0768 42.0836 39.2714 42.6775 38.6775C43.2714 38.0836 44.0768 37.75 44.9167 37.75H67.0833ZM66.2917 62.2917V53.9C66.2917 52.531 65.7479 51.2182 64.7799 50.2502C63.8118 49.2822 62.499 48.7383 61.13 48.7383C59.7842 48.7383 58.2167 49.5617 57.4567 50.7967V49.0392H53.0392V62.2917H57.4567V54.4858C57.4567 53.2667 58.4383 52.2692 59.6575 52.2692C60.2454 52.2692 60.8092 52.5027 61.2249 52.9184C61.6406 53.3341 61.8742 53.8979 61.8742 54.4858V62.2917H66.2917ZM47.8933 46.5533C48.5988 46.5533 49.2754 46.2731 49.7742 45.7742C50.2731 45.2754 50.5533 44.5988 50.5533 43.8933C50.5533 42.4208 49.3658 41.2175 47.8933 41.2175C47.1837 41.2175 46.503 41.4994 46.0012 42.0012C45.4994 42.503 45.2175 43.1837 45.2175 43.8933C45.2175 45.3658 46.4208 46.5533 47.8933 46.5533ZM50.0942 62.2917V49.0392H45.7083V62.2917H50.0942Z" fill="#F08700"/>
<path d="M19.5 17.4C10.5625 17.4 3.25 24.8834 3.25 34.1C3.25 42.4334 9.1975 49.35 16.965 50.6V38.9334H12.8375V34.1H16.965V30.4167C16.965 26.2334 19.3863 23.9334 23.1075 23.9334C24.8788 23.9334 26.7313 24.25 26.7313 24.25V28.3667H24.6838C22.6688 28.3667 22.035 29.65 22.035 30.9667V34.1H26.5525L25.8213 38.9334H22.035V50.6C25.8642 49.9798 29.3511 47.9759 31.8661 44.9501C34.3812 41.9244 35.7587 38.0761 35.75 34.1C35.75 24.8834 28.4375 17.4 19.5 17.4Z" fill="#F08700"/>
</svg>
