<svg xmlns="http://www.w3.org/2000/svg" xmlns:xlink="http://www.w3.org/1999/xlink" viewBox="0 0 1080 1080"><defs><style>.cls-1{isolation:isolate;}.cls-2{fill:#12355b;}.cls-3{fill:#20bdff;}.cls-4{mix-blend-mode:multiply;fill:url(#linear-gradient);}</style><linearGradient id="linear-gradient" x1="401.13" y1="539.18" x2="376.63" y2="604.41" gradientUnits="userSpaceOnUse"><stop offset="0.19" stop-color="#fff" stop-opacity="0"/><stop offset="0.24" stop-color="#deeff8" stop-opacity="0.15"/><stop offset="0.34" stop-color="#acd6ee" stop-opacity="0.37"/><stop offset="0.44" stop-color="#81c1e5" stop-opacity="0.57"/><stop offset="0.54" stop-color="#5eafde" stop-opacity="0.72"/><stop offset="0.65" stop-color="#43a2d8" stop-opacity="0.84"/><stop offset="0.76" stop-color="#2f99d4" stop-opacity="0.93"/><stop offset="0.87" stop-color="#2493d2" stop-opacity="0.98"/><stop offset="1" stop-color="#2091d1"/></linearGradient></defs><title>firct_click_v2</title><g class="cls-1"><g id="Layer_1" data-name="Layer 1"><path class="cls-2" d="M433,537.42V504.28h-7.78v-13H433v-16q0-9,5.21-14.78t15.1-5.73a28,28,0,0,1,6.57.89,18.11,18.11,0,0,1,6.37,2.89l-6.21,10.63a5.13,5.13,0,0,0-2.47-1.84,8.37,8.37,0,0,0-2.68-.47,6.8,6.8,0,0,0-5.16,2.1c-1.33,1.4-2,3.65-2,6.73v15.57h11.79v13H447.75v33.14Zm32.09-62.28a6.62,6.62,0,0,1,2.58-5.37,8.59,8.59,0,0,1,5.52-2.1,8.19,8.19,0,0,1,5.42,2.1,6.72,6.72,0,0,1,2.47,5.37,6.58,6.58,0,0,1-2.47,5.31,8.28,8.28,0,0,1-5.42,2.05,8.7,8.7,0,0,1-5.52-2.05A6.48,6.48,0,0,1,465.11,475.14Zm.32,16.3h14.73v46H465.43Z"/><path class="cls-2" d="M508.56,491.44l1.37,12.63-.32-1.9a21,21,0,0,1,5.47-7,31.45,31.45,0,0,1,6.89-4.47,13.8,13.8,0,0,1,5.21-1.58l-.74,14.73a13.14,13.14,0,0,0-8.83,1.68,15.77,15.77,0,0,0-5.68,6.1,16.42,16.42,0,0,0-2,7.79v18H495.3v-46Z"/><path class="cls-2" d="M553.38,538.36a27.75,27.75,0,0,1-10.58-2,23.47,23.47,0,0,1-8.26-5.58l6.11-8.1a25.13,25.13,0,0,0,6.25,4.36,12.77,12.77,0,0,0,5.21,1.32,12.64,12.64,0,0,0,3.21-.37,5,5,0,0,0,2.26-1.16,2.68,2.68,0,0,0,.84-2.05A3.34,3.34,0,0,0,557,522a11.85,11.85,0,0,0-3.62-1.73q-2.22-.69-4.74-1.42-6.32-2-9.1-5.84a13.94,13.94,0,0,1-2.79-8.37,15.09,15.09,0,0,1,1.84-7,14.77,14.77,0,0,1,5.9-5.89A20.48,20.48,0,0,1,555,489.34a35.74,35.74,0,0,1,9.79,1.16,24,24,0,0,1,7.57,3.78l-5.57,8.63a21,21,0,0,0-4.48-2.68,12.77,12.77,0,0,0-4.57-1.21,7.55,7.55,0,0,0-3.21.42,5.23,5.23,0,0,0-2.05,1.37,2.67,2.67,0,0,0-.74,1.78,3.42,3.42,0,0,0,1.53,3.16,12.23,12.23,0,0,0,4.15,1.79c1.69.42,3.33.91,5,1.47a19.37,19.37,0,0,1,5.78,2.84,12.81,12.81,0,0,1,3.74,4.26,12.6,12.6,0,0,1,1.31,5.95A15.71,15.71,0,0,1,571,530a15.87,15.87,0,0,1-6.53,6A23.6,23.6,0,0,1,553.38,538.36Z"/><path class="cls-2" d="M589.77,471.24H604.5v20h11.15V502.7H604.5v34.72H589.77V502.7h-7.15V491.23h7.15Z"/><path class="cls-2" d="M665.94,533.31a23.79,23.79,0,0,1-7.63,3.9,29.3,29.3,0,0,1-9,1.47,30.7,30.7,0,0,1-13.73-2.89,21.24,21.24,0,0,1-9.05-8.31,25.29,25.29,0,0,1-3.21-13.1,23.73,23.73,0,0,1,3.48-13.1,22.82,22.82,0,0,1,9.1-8.26,25.94,25.94,0,0,1,11.83-2.84,31.25,31.25,0,0,1,10.78,1.68,26.17,26.17,0,0,1,7.84,4.42l-7.15,9.47a21.46,21.46,0,0,0-4.05-2.37,14.23,14.23,0,0,0-6-1.21,10.35,10.35,0,0,0-5.58,1.58,11.24,11.24,0,0,0-4,4.32,13,13,0,0,0-1.48,6.31,12.57,12.57,0,0,0,1.58,6.2,11.61,11.61,0,0,0,4.37,4.48,12.83,12.83,0,0,0,6.57,1.63,14,14,0,0,0,4.47-.69,10.4,10.4,0,0,0,3.53-1.94Z"/><path class="cls-2" d="M677.3,454.41H692v83H677.3Z"/><path class="cls-2" d="M706.86,475.14a6.62,6.62,0,0,1,2.58-5.37,8.59,8.59,0,0,1,5.52-2.1,8.19,8.19,0,0,1,5.42,2.1,6.72,6.72,0,0,1,2.47,5.37,6.58,6.58,0,0,1-2.47,5.31A8.28,8.28,0,0,1,715,482.5a8.7,8.7,0,0,1-5.52-2.05A6.48,6.48,0,0,1,706.86,475.14Zm.32,16.3h14.73v46H707.18Z"/><path class="cls-2" d="M776.09,533.31a23.9,23.9,0,0,1-7.63,3.9,29.31,29.31,0,0,1-9,1.47,30.65,30.65,0,0,1-13.72-2.89,21.18,21.18,0,0,1-9-8.31,25.29,25.29,0,0,1-3.21-13.1,23.81,23.81,0,0,1,3.47-13.1,23,23,0,0,1,9.1-8.26,26,26,0,0,1,11.84-2.84,31.29,31.29,0,0,1,10.78,1.68,26.42,26.42,0,0,1,7.84,4.42l-7.16,9.47a21.46,21.46,0,0,0-4.05-2.37,14.2,14.2,0,0,0-6-1.21,10.31,10.31,0,0,0-5.57,1.58,11.27,11.27,0,0,0-4,4.32,13.1,13.1,0,0,0-1.47,6.31,12.46,12.46,0,0,0,1.58,6.2,11.59,11.59,0,0,0,4.36,4.48,12.87,12.87,0,0,0,6.58,1.63,14,14,0,0,0,4.47-.69,10.25,10.25,0,0,0,3.52-1.94Z"/><path class="cls-2" d="M787.45,537.42v-83h14.73v83Zm10.31-12.73-1.48-14,27.78-20.41,8.94,7.89Zm16.09-18.52,20.83,31.25H817.54l-13.37-22.83Z"/><path class="cls-3" d="M447.33,633.52a22.06,22.06,0,0,1-11.46-3,20.81,20.81,0,0,1-7.95-8.68A29.34,29.34,0,0,1,425,608.38a26.08,26.08,0,0,1,3.16-13.26,21,21,0,0,1,8.62-8.31A26.62,26.62,0,0,1,449.23,584a26.31,26.31,0,0,1,8.46,1.37,16.64,16.64,0,0,1,6.79,4.21V549.26H479.1v83H464.38v-8.94l1.15,3.16a36.87,36.87,0,0,1-8,5A24,24,0,0,1,447.33,633.52Zm4.84-12.41a15.72,15.72,0,0,0,5.21-.79,12.15,12.15,0,0,0,4-2.31,14.31,14.31,0,0,0,3-3.84V602.91A10.16,10.16,0,0,0,461.8,599a12.21,12.21,0,0,0-4.21-2.52,15.76,15.76,0,0,0-5.42-.89,11.76,11.76,0,0,0-6.05,1.63,12.28,12.28,0,0,0-4.47,4.47,12.56,12.56,0,0,0-1.68,6.52,13.15,13.15,0,0,0,1.68,6.63,12.58,12.58,0,0,0,4.47,4.63A11.53,11.53,0,0,0,452.17,621.11Z"/><path class="cls-3" d="M493.94,570a6.61,6.61,0,0,1,2.57-5.36,8.56,8.56,0,0,1,5.53-2.11,8.17,8.17,0,0,1,5.42,2.11,6.75,6.75,0,0,1,2.47,5.36,6.58,6.58,0,0,1-2.47,5.31,8.31,8.31,0,0,1-5.42,2.06,8.72,8.72,0,0,1-5.53-2.06A6.45,6.45,0,0,1,493.94,570Zm.31,16.31H509v46H494.25Z"/><path class="cls-3" d="M547.91,655.41a32.35,32.35,0,0,1-10.47-1.48,28.19,28.19,0,0,1-7.21-3.57c-2-1.41-3.72-2.74-5.26-4l8.63-10.1a41.6,41.6,0,0,0,5.63,4.26,15.51,15.51,0,0,0,8.47,2.05,17.08,17.08,0,0,0,6.47-1.21,11.6,11.6,0,0,0,4.83-3.52,9,9,0,0,0,1.85-5.79V622l.52,2.63a15,15,0,0,1-6.1,6.26q-4.42,2.68-11.57,2.68a22,22,0,0,1-11.52-3.2,23.77,23.77,0,0,1-8.47-8.74,26.46,26.46,0,0,1,.21-25.46,25.55,25.55,0,0,1,8.73-8.89A21.58,21.58,0,0,1,544,584a28,28,0,0,1,10.37,1.74A16.86,16.86,0,0,1,561,590l-.53,1.37,1.58-5.05h13.57v46a19.8,19.8,0,0,1-3.78,11.94,26.2,26.2,0,0,1-10,8.21A31.56,31.56,0,0,1,547.91,655.41Zm-12.52-46.82a13.12,13.12,0,0,0,1.68,6.63,12.34,12.34,0,0,0,4.58,4.63,12.61,12.61,0,0,0,6.47,1.68,16.93,16.93,0,0,0,5.41-.79,12.78,12.78,0,0,0,4.21-2.31,13.18,13.18,0,0,0,3.11-3.84V603.33a10.33,10.33,0,0,0-2.84-3.94,14,14,0,0,0-4.37-2.53,16.31,16.31,0,0,0-5.52-.89,12.88,12.88,0,0,0-6.47,1.63,12.13,12.13,0,0,0-4.58,4.47A12.56,12.56,0,0,0,535.39,608.59Z"/><path class="cls-3" d="M590.41,570a6.63,6.63,0,0,1,2.57-5.36,8.56,8.56,0,0,1,5.53-2.11,8.17,8.17,0,0,1,5.42,2.11A6.75,6.75,0,0,1,606.4,570a6.58,6.58,0,0,1-2.47,5.31,8.31,8.31,0,0,1-5.42,2.06,8.72,8.72,0,0,1-5.53-2.06A6.47,6.47,0,0,1,590.41,570Zm.31,16.31h14.73v46H590.72Z"/><path class="cls-3" d="M624.91,566.09h14.73v20h11.15v11.46H639.64v34.72H624.91V597.54h-7.15V586.08h7.15Z"/><path class="cls-3" d="M681.41,633.52A26,26,0,0,1,669.78,631a19.22,19.22,0,0,1-8.26-8q-3-5.36-3-13.67a27.37,27.37,0,0,1,3.16-13.47,23,23,0,0,1,8.31-8.78A20.87,20.87,0,0,1,680.88,584q6.84,0,10.36,2.27a25.67,25.67,0,0,1,5.84,5l-.63,1.79,1.37-6.73H711.5v46H696.77v-10l1.15,3.15c-.14,0-.56.41-1.26,1.21a23,23,0,0,1-3.1,2.84,20,20,0,0,1-5,2.84A18.88,18.88,0,0,1,681.41,633.52Zm4.21-12a13.29,13.29,0,0,0,4.73-.79,10.44,10.44,0,0,0,3.68-2.31,14.29,14.29,0,0,0,2.74-3.84V603.33a10.29,10.29,0,0,0-2.53-3.94,11.71,11.71,0,0,0-4-2.53,14.31,14.31,0,0,0-5.15-.89,11,11,0,0,0-5.84,1.63,11.82,11.82,0,0,0-4.26,4.47,13.22,13.22,0,0,0-1.58,6.52,13,13,0,0,0,1.69,6.63,12.58,12.58,0,0,0,4.47,4.63A11.48,11.48,0,0,0,685.62,621.53Z"/><path class="cls-3" d="M726.64,549.26h14.73v83H726.64Z"/><path class="cls-3" d="M259.05,481.73A87.92,87.92,0,0,0,259,606.06l.4.4a87.67,87.67,0,0,0,63,25.36c11.5-.15,17.09-14.17,9-22.3a13.06,13.06,0,0,0-4.32-2.87,13.26,13.26,0,0,0-5.11-1,61.77,61.77,0,1,1,52-29.56c-.26.42-.52.84-.79,1.26a62.17,62.17,0,0,1-18.49,18.48l3.07,3.07a22.34,22.34,0,0,0,31.45.18l.16-.16c.7-.7,1.39-1.4,2.07-2.11.18-.22.34-.44.51-.67.31-.42.63-.85.93-1.28l.1-.14.33-.48a3.62,3.62,0,0,0,.22-.32c.23-.32.45-.64.67-1l.06-.08.06-.11c.28-.4.55-.81.81-1.22.07-.09.13-.2.19-.29l0,0,0,0c.35-.54.69-1.08,1-1.63l0-.07c.28-.45.55-.9.82-1.36.11-.2.23-.39.34-.58s.2-.36.29-.54.31-.53.46-.8l.06-.12q.47-.84.9-1.68c.07-.13.13-.26.19-.39.19-.36.38-.73.55-1.09,0,0,0,0,0-.05a2.2,2.2,0,0,0,.15-.31q.25-.5.48-1l.12-.24,0-.08.33-.7.13-.3c.12-.25.23-.5.34-.75l0-.07c.09-.22.19-.43.28-.65s.09-.2.13-.3c.15-.34.29-.68.43-1l.06-.14a.94.94,0,0,0,.06-.15c.15-.36.3-.72.43-1.08s.19-.45.27-.68l.1-.27,0-.08.12-.32.39-1c0-.07.05-.15.08-.23.18-.53.37-1.06.55-1.6h0c.2-.57.38-1.15.56-1.73a.84.84,0,0,0,.05-.17c.16-.51.31-1,.46-1.53q.33-1.14.63-2.28c.12-.45.23-.9.34-1.35l.12-.48c.12-.5.24-1,.34-1.52l0-.16a87.92,87.92,0,0,0-148-80.92Z"/><path class="cls-3" d="M398.87,571.55l-.16.16a22.32,22.32,0,0,1-31.44-.18L346.71,551l19.39-9.06a4.75,4.75,0,0,0-.49-8.8l-76.37-25.91a3.74,3.74,0,0,0-4.75,4.75l25.85,76.39a4.75,4.75,0,0,0,8.8.49l9.08-19.38,29.49,29.51a22.34,22.34,0,0,0,31.45.18l.16-.16c.7-.7,1.39-1.4,2.07-2.11.18-.22.34-.44.51-.67l.7-1a87.36,87.36,0,0,0,14.5-32.57Q403.2,567.23,398.87,571.55Z"/><path class="cls-4" d="M408.53,533.84l-25.75,14.85a61.55,61.55,0,0,1-8.86,27.44,22.16,22.16,0,0,0,24.8-4.43l.16-.15c2.87-2.88,5.63-5.84,8.22-8.89A88.09,88.09,0,0,0,408.53,533.84Z"/></g></g></svg>