<svg width="70" height="65" viewBox="0 0 70 65" fill="none" xmlns="http://www.w3.org/2000/svg">
<path d="M35.7917 0.65493C33.5751 0.496596 31.2634 1.00326 29.2051 2.2066C27.8828 2.96367 26.7231 3.97428 25.7922 5.1805C24.8614 6.38672 24.1777 7.76482 23.7806 9.23578C23.3834 10.7067 23.2805 12.2416 23.4778 13.7524C23.675 15.2632 24.1686 16.7202 24.9301 18.0399L48.1734 58.2566C51.3717 63.8299 58.4651 65.6666 64.0384 62.4999C69.5801 59.3333 71.4167 52.2083 68.2501 46.6666L45.0701 6.44993C44.1127 4.80117 42.7669 3.41134 41.1498 2.40136C39.5328 1.39138 37.6934 0.791849 35.7917 0.65493ZM18.5967 17.4066L1.75008 46.6666C0.723543 48.4261 0.177523 50.4245 0.166748 52.4616C0.166748 53.9878 0.467351 55.499 1.05139 56.909C1.63544 58.319 2.49148 59.6002 3.57065 60.6794C4.64983 61.7585 5.93099 62.6146 7.34099 63.1986C8.751 63.7827 10.2622 64.0833 11.7884 64.0833C13.8255 64.077 15.8252 63.5355 17.5871 62.5128C19.3489 61.4902 20.811 60.0224 21.8267 58.2566V58.2883L31.8334 40.9349C27.5584 33.6516 23.1884 26.3999 19.2617 18.8949C19.0084 18.4199 18.7867 17.9133 18.6284 17.4066H18.5967ZM18.5967 17.4066L48.9334 11.8333L18.5967 17.4066Z" fill="#F08700"/>
</svg>
