<svg xmlns="http://www.w3.org/2000/svg" xmlns:xlink="http://www.w3.org/1999/xlink" viewBox="0 0 1080 1080"><defs><style>.cls-1{isolation:isolate;}.cls-2{fill:#39393a;}.cls-3{fill:#20bdff;}.cls-4{mix-blend-mode:multiply;fill:url(#linear-gradient);}</style><linearGradient id="linear-gradient" x1="339.9" y1="526.77" x2="326" y2="563.76" gradientUnits="userSpaceOnUse"><stop offset="0.19" stop-color="#fff" stop-opacity="0"/><stop offset="0.24" stop-color="#deeff8" stop-opacity="0.15"/><stop offset="0.34" stop-color="#acd6ee" stop-opacity="0.37"/><stop offset="0.44" stop-color="#81c1e5" stop-opacity="0.57"/><stop offset="0.54" stop-color="#5eafde" stop-opacity="0.72"/><stop offset="0.65" stop-color="#43a2d8" stop-opacity="0.84"/><stop offset="0.76" stop-color="#2f99d4" stop-opacity="0.93"/><stop offset="0.87" stop-color="#2493d2" stop-opacity="0.98"/><stop offset="1" stop-color="#2091d1"/></linearGradient></defs><title>firct_click_v2</title><g class="cls-1"><g id="Layer_1" data-name="Layer 1"><path class="cls-2" d="M370.51,579.3V538h-9.16V525.37h9.16V504.26q0-11.2,5.66-17.62t16.47-6.42a27.89,27.89,0,0,1,6.68.89,21.11,21.11,0,0,1,6.55,2.79l-6,10.31a6.22,6.22,0,0,0-2.74-1.85,10.39,10.39,0,0,0-3-.44,8.62,8.62,0,0,0-6.87,2.92q-2.55,2.93-2.55,9.67v20.86h14.76V538H384.75V579.3ZM407.78,506a6.66,6.66,0,0,1,2.6-5.34,8.82,8.82,0,0,1,5.79-2.17,7.8,7.8,0,0,1,5.34,2.17,7,7,0,0,1,2.42,5.46,6.84,6.84,0,0,1-2.42,5.41,8,8,0,0,1-5.34,2.1,9,9,0,0,1-5.79-2.1A6.74,6.74,0,0,1,407.78,506Zm.76,19.46h14.12v53.8H408.54Z"/><path class="cls-2" d="M455.09,525.5l1.4,15.26-.38-2.16a21.69,21.69,0,0,1,6.1-8.27,36,36,0,0,1,8.27-5.34,17.8,17.8,0,0,1,7-1.91l-.89,14.25a17.25,17.25,0,0,0-10.5,2.16,18.63,18.63,0,0,0-7,7.19,19.44,19.44,0,0,0-2.48,9.47V579.3H442.5V525.5Z"/><path class="cls-2" d="M508.13,580.45a31.64,31.64,0,0,1-11.63-2.16,24,24,0,0,1-9.23-6.24l6-8.14a28.28,28.28,0,0,0,7.06,5A15.19,15.19,0,0,0,511.38,570a6.47,6.47,0,0,0,3.11-1.84,4.73,4.73,0,0,0,1.15-3.31,4.94,4.94,0,0,0-1.72-4.07,14.65,14.65,0,0,0-4.51-2.35c-1.87-.64-3.82-1.29-5.86-2q-7-2.16-10.42-6.36a15,15,0,0,1-3.44-9.8,16.61,16.61,0,0,1,8.71-14.43q4.39-2.49,11.26-2.48a35.92,35.92,0,0,1,10.56,1.4,26.35,26.35,0,0,1,8.52,4.45l-5.47,8.65a17.49,17.49,0,0,0-5.4-3.44,17.89,17.89,0,0,0-5.66-1.4,9,9,0,0,0-4.08.64,8.78,8.78,0,0,0-2.92,2,4,4,0,0,0-1.15,2.86,4.63,4.63,0,0,0,1.78,4.07,14.3,14.3,0,0,0,4.9,2.42q3,.88,5.79,1.91a30,30,0,0,1,6.93,3.18,14.87,14.87,0,0,1,4.77,4.83A13.45,13.45,0,0,1,530,562a17.81,17.81,0,0,1-2.41,9,18.12,18.12,0,0,1-7.19,6.8Q515.64,580.45,508.13,580.45Z"/><path class="cls-2" d="M551,501.84h14.25V525.5h14v11.06h-14V579.3H551V536.56h-9.29V525.5H551Z"/><path class="cls-2" d="M637.87,574.47A30.38,30.38,0,0,1,629,579a32.69,32.69,0,0,1-10.36,1.71A33.77,33.77,0,0,1,603,577.2a25.18,25.18,0,0,1-10.5-9.79,29.3,29.3,0,0,1-3.68-15.07,26.78,26.78,0,0,1,14.56-24.8,29.22,29.22,0,0,1,13.8-3.44,36.39,36.39,0,0,1,12.08,1.84,27.55,27.55,0,0,1,8.91,5l-6.87,9.28a27.2,27.2,0,0,0-5.41-3.11,17.83,17.83,0,0,0-7.44-1.46,14,14,0,0,0-7.69,2.22,16.57,16.57,0,0,0-5.6,5.92,16.92,16.92,0,0,0-2.1,8.52,16.73,16.73,0,0,0,2.16,8.39,16.29,16.29,0,0,0,5.92,6,16.77,16.77,0,0,0,8.71,2.22,17.17,17.17,0,0,0,10.81-3.56Z"/><path class="cls-2" d="M652.5,480.09h14.25V579.3H652.5Z"/><path class="cls-2" d="M685.7,506a6.75,6.75,0,0,1,2.54-5.34,8.42,8.42,0,0,1,5.6-2.17,8.16,8.16,0,0,1,5.53,2.17,6.91,6.91,0,0,1,2.48,5.46,6.79,6.79,0,0,1-2.48,5.35,8.2,8.2,0,0,1-5.53,2.16,8.46,8.46,0,0,1-5.6-2.16A6.89,6.89,0,0,1,685.7,506Zm.63,19.46h14.25v53.8H686.33Z"/><path class="cls-2" d="M764.69,574.47a30.5,30.5,0,0,1-8.84,4.52,32.76,32.76,0,0,1-10.37,1.71,33.79,33.79,0,0,1-15.71-3.5,25.15,25.15,0,0,1-10.49-9.79,29.3,29.3,0,0,1-3.69-15.07,26.82,26.82,0,0,1,14.56-24.8A29.23,29.23,0,0,1,744,524.1,36.47,36.47,0,0,1,756,525.94a27.6,27.6,0,0,1,8.9,5l-6.87,9.28a27.39,27.39,0,0,0-5.4-3.11,17.83,17.83,0,0,0-7.44-1.46,14.08,14.08,0,0,0-7.7,2.22,16.66,16.66,0,0,0-5.6,5.92,17,17,0,0,0-2.09,8.52,16.62,16.62,0,0,0,2.16,8.39,16.19,16.19,0,0,0,5.91,6,16.8,16.8,0,0,0,8.72,2.22,17.22,17.22,0,0,0,10.81-3.56Z"/><path class="cls-2" d="M779.32,579.3V480.09h14.24V579.3Zm9.79-16.15-1.4-13.74,32.69-25.18,8.65,7.63Zm17.68-20.1,24.55,36.25H814.8l-17.42-28Z"/><path class="cls-3" d="M259.34,494.19a49.84,49.84,0,0,0,0,70.5l.22.23a49.71,49.71,0,0,0,35.7,14.38,7.41,7.41,0,0,0,5.08-12.65,7.22,7.22,0,0,0-2.45-1.62,7.52,7.52,0,0,0-2.9-.55,35,35,0,1,1,29.51-16.76l-.45.72a35.09,35.09,0,0,1-4.69,5.79,34.59,34.59,0,0,1-5.8,4.68l1.75,1.75a12.68,12.68,0,0,0,17.83.1l.09-.09,1.18-1.2.28-.38c.18-.24.36-.48.53-.73l.06-.08.18-.27.13-.18.38-.55,0,0,0-.06c.16-.23.31-.46.46-.7l.1-.16,0,0s0,0,0,0c.19-.3.39-.61.57-.92l0,0,.46-.77.19-.33.17-.3c.09-.15.17-.31.25-.46l0-.06.51-1a2.26,2.26,0,0,0,.11-.22l.31-.62,0,0a.89.89,0,0,0,.08-.17c.1-.19.19-.38.27-.56s.05-.09.07-.14,0,0,0,0l.18-.39.08-.17c.07-.14.13-.28.19-.43l0,0,.16-.36.07-.18c.09-.19.17-.38.25-.58l0-.08,0-.08c.09-.21.17-.41.25-.62l.15-.38.06-.15s0,0,0,0l.06-.18c.08-.2.15-.4.22-.6,0,0,0-.08,0-.13l.31-.9h0c.11-.32.22-.65.32-1l0-.1c.09-.29.18-.58.26-.87l.36-1.29c.06-.26.13-.51.19-.77l.06-.27c.07-.29.14-.57.2-.87l0-.08a49.85,49.85,0,0,0-83.94-45.89Z"/><path class="cls-3" d="M338.62,545.12l-.09.09a12.57,12.57,0,0,1-14.06,2.51,12.77,12.77,0,0,1-3.77-2.61L309,533.44l11-5.14a2.69,2.69,0,0,0-.27-5l-43.31-14.7a2.12,2.12,0,0,0-2.69,2.7l14.66,43.31a2.68,2.68,0,0,0,5,.28l5.15-11,16.73,16.74a12.68,12.68,0,0,0,17.83.1l.09-.09,1.18-1.2.28-.38.4-.54a49.63,49.63,0,0,0,8.22-18.47C341.81,541.81,340.25,543.49,338.62,545.12Z"/><path class="cls-4" d="M344.09,523.74l-14.6,8.42a34.86,34.86,0,0,1-5,15.56,12.57,12.57,0,0,0,14.06-2.51l.09-.09c1.63-1.63,3.19-3.31,4.66-5A49.87,49.87,0,0,0,344.09,523.74Z"/></g></g></svg>