<svg xmlns="http://www.w3.org/2000/svg" xmlns:xlink="http://www.w3.org/1999/xlink" viewBox="0 0 1088.55 1088.55"><defs><style>.cls-1{isolation:isolate;}.cls-2{fill:#39393a;}.cls-3{fill:#20bdff;}.cls-4{mix-blend-mode:multiply;fill:url(#linear-gradient);}</style><linearGradient id="linear-gradient" x1="254.76" y1="534.42" x2="244.41" y2="561.98" gradientUnits="userSpaceOnUse"><stop offset="0.19" stop-color="#fff" stop-opacity="0"/><stop offset="0.24" stop-color="#deeff8" stop-opacity="0.15"/><stop offset="0.34" stop-color="#acd6ee" stop-opacity="0.37"/><stop offset="0.44" stop-color="#81c1e5" stop-opacity="0.57"/><stop offset="0.54" stop-color="#5eafde" stop-opacity="0.72"/><stop offset="0.65" stop-color="#43a2d8" stop-opacity="0.84"/><stop offset="0.76" stop-color="#2f99d4" stop-opacity="0.93"/><stop offset="0.87" stop-color="#2493d2" stop-opacity="0.98"/><stop offset="1" stop-color="#2091d1"/></linearGradient></defs><title>firct_click_v2</title><g class="cls-1"><g id="Layer_1" data-name="Layer 1"><path class="cls-2" d="M277.57,573.57V542.76h-6.82v-9.39h6.82V517.64q0-8.34,4.22-13.13t12.28-4.79a20.61,20.61,0,0,1,5,.67,15.63,15.63,0,0,1,4.89,2.08l-4.46,7.68a4.5,4.5,0,0,0-2-1.37,7.29,7.29,0,0,0-2.22-.34,6.44,6.44,0,0,0-5.12,2.18q-1.9,2.19-1.9,7.21v15.54h11v9.39h-11v30.81ZM305.35,519a5,5,0,0,1,1.94-4,6.62,6.62,0,0,1,4.31-1.61,5.88,5.88,0,0,1,4,1.61,5.26,5.26,0,0,1,1.8,4.08,5.1,5.1,0,0,1-1.8,4,6,6,0,0,1-4,1.56,6.73,6.73,0,0,1-4.31-1.56A5,5,0,0,1,305.35,519Zm.57,14.5h10.52v40.1H305.92Z"/><path class="cls-2" d="M340.61,533.47l1,11.37-.28-1.61a16.22,16.22,0,0,1,4.55-6.16,27.15,27.15,0,0,1,6.16-4,13.19,13.19,0,0,1,5.21-1.42l-.66,10.61a12.84,12.84,0,0,0-7.82,1.62,13.87,13.87,0,0,0-5.21,5.35,14.41,14.41,0,0,0-1.85,7.06v17.26H331.23v-40.1Z"/><path class="cls-2" d="M380.14,574.42a23.66,23.66,0,0,1-8.67-1.61,17.85,17.85,0,0,1-6.88-4.65l4.46-6.06a21.09,21.09,0,0,0,5.26,3.69,11.56,11.56,0,0,0,5,1.24,11.88,11.88,0,0,0,3.27-.43,4.83,4.83,0,0,0,2.32-1.37,3.57,3.57,0,0,0,.85-2.47,3.65,3.65,0,0,0-1.28-3,10.79,10.79,0,0,0-3.36-1.76l-4.36-1.47a15.68,15.68,0,0,1-7.78-4.74,11.18,11.18,0,0,1-2.56-7.29,12.41,12.41,0,0,1,6.5-10.76,16.84,16.84,0,0,1,8.39-1.85,27.18,27.18,0,0,1,7.87,1,19.83,19.83,0,0,1,6.35,3.32l-4.08,6.44a14.12,14.12,0,0,0-8.25-3.6,6.7,6.7,0,0,0-3,.48A6.29,6.29,0,0,0,378,541a3,3,0,0,0-.85,2.13,3.45,3.45,0,0,0,1.32,3,10.65,10.65,0,0,0,3.65,1.8c1.49.45,2.93.92,4.32,1.42a23,23,0,0,1,5.16,2.37,11.06,11.06,0,0,1,3.56,3.61,10.06,10.06,0,0,1,1.32,5.31,13.29,13.29,0,0,1-1.8,6.73,13.45,13.45,0,0,1-5.35,5.07A19,19,0,0,1,380.14,574.42Z"/><path class="cls-2" d="M412.08,515.84H422.7v17.63h10.43v8.25H422.7v31.85H412.08V541.72h-6.92v-8.25h6.92Z"/><path class="cls-2" d="M476.83,570a22.46,22.46,0,0,1-6.59,3.37,24.42,24.42,0,0,1-7.73,1.28,25.21,25.21,0,0,1-11.7-2.61,18.72,18.72,0,0,1-7.82-7.3,21.74,21.74,0,0,1-2.75-11.23A19.95,19.95,0,0,1,451.09,535a21.82,21.82,0,0,1,10.29-2.56,27.11,27.11,0,0,1,9,1.37,20.7,20.7,0,0,1,6.64,3.75l-5.12,6.92a20.51,20.51,0,0,0-4-2.33,13.47,13.47,0,0,0-5.55-1.09,10.52,10.52,0,0,0-5.73,1.66,12.43,12.43,0,0,0-4.17,4.41,12.64,12.64,0,0,0-1.57,6.35,12.43,12.43,0,0,0,1.62,6.26,12.1,12.1,0,0,0,4.4,4.5,12.47,12.47,0,0,0,6.5,1.66,13.23,13.23,0,0,0,4.45-.71,13,13,0,0,0,3.6-1.95Z"/><path class="cls-2" d="M487.73,499.63h10.62v73.94H487.73Z"/><path class="cls-2" d="M512.47,519a5,5,0,0,1,1.9-4,6.3,6.3,0,0,1,4.17-1.61,6.14,6.14,0,0,1,4.12,1.61,5.2,5.2,0,0,1,1.85,4.08,5.08,5.08,0,0,1-1.85,4,6.09,6.09,0,0,1-4.12,1.61,6.25,6.25,0,0,1-4.17-1.61A5.09,5.09,0,0,1,512.47,519Zm.47,14.5h10.62v40.1H512.94Z"/><path class="cls-2" d="M571.34,570a22.46,22.46,0,0,1-6.59,3.37,24.42,24.42,0,0,1-7.73,1.28A25.25,25.25,0,0,1,545.31,572a18.78,18.78,0,0,1-7.82-7.3,21.84,21.84,0,0,1-2.74-11.23A19.95,19.95,0,0,1,545.6,535a21.78,21.78,0,0,1,10.28-2.56,27.13,27.13,0,0,1,9,1.37,20.7,20.7,0,0,1,6.64,3.75l-5.12,6.92a20.51,20.51,0,0,0-4-2.33,13.47,13.47,0,0,0-5.55-1.09,10.5,10.5,0,0,0-5.73,1.66,13,13,0,0,0-4.13,17,12.2,12.2,0,0,0,4.41,4.5,12.47,12.47,0,0,0,6.5,1.66,13.27,13.27,0,0,0,4.45-.71,13,13,0,0,0,3.6-1.95Z"/><path class="cls-2" d="M582.24,573.57V499.63h10.61v73.94Zm7.3-12-1-10.24,24.37-18.77,6.44,5.69Zm13.17-15,18.3,27H608.68l-13-20.86Z"/><path class="cls-3" d="M645.37,574.61a19.63,19.63,0,0,1-10.1-2.65,18.46,18.46,0,0,1-7.06-7.59,24.61,24.61,0,0,1-2.56-11.47,22.84,22.84,0,0,1,2.75-11.52,18.15,18.15,0,0,1,7.54-7.25,23.2,23.2,0,0,1,10.76-2.46,21.4,21.4,0,0,1,8.34,1.66,15,15,0,0,1,6.35,4.78l-.19,3.61V499.63h10.52v73.94H661.11v-9l1,2.56a26.08,26.08,0,0,1-7.21,5.36A20.75,20.75,0,0,1,645.37,574.61Zm3.41-9.1a14.35,14.35,0,0,0,5.55-1,11.41,11.41,0,0,0,4.17-2.93,12.51,12.51,0,0,0,2.61-4.6v-8.44a11.1,11.1,0,0,0-2.52-4.45,12.34,12.34,0,0,0-4.31-3,13.81,13.81,0,0,0-5.5-1.09,11.93,11.93,0,0,0-6.21,1.66,12.93,12.93,0,0,0-4.5,4.5,12.46,12.46,0,0,0-1.7,6.54,12.74,12.74,0,0,0,1.7,6.54,12.58,12.58,0,0,0,4.5,4.6A11.93,11.93,0,0,0,648.78,565.51Z"/><path class="cls-3" d="M685.94,519a5,5,0,0,1,1.9-4,6.3,6.3,0,0,1,4.17-1.61,6.12,6.12,0,0,1,4.12,1.61,5.17,5.17,0,0,1,1.85,4.08,5,5,0,0,1-1.85,4,6.07,6.07,0,0,1-4.12,1.61,6.25,6.25,0,0,1-4.17-1.61A5.09,5.09,0,0,1,685.94,519Zm.48,14.5H697v40.1H686.42Z"/><path class="cls-3" d="M731.44,593.66a25,25,0,0,1-14.55-4.17,40.43,40.43,0,0,1-5-3.88l6.16-7.3a31.23,31.23,0,0,0,5.83,4.31,14.78,14.78,0,0,0,7.44,1.75,16.21,16.21,0,0,0,6.78-1.32,11.15,11.15,0,0,0,4.55-3.7,9.42,9.42,0,0,0,1.56-5.78l.09-10.05.67,2.08a15.11,15.11,0,0,1-5.93,6.36,19.57,19.57,0,0,1-10.57,2.65,19.27,19.27,0,0,1-10.14-2.8,20.67,20.67,0,0,1-7.39-7.58,21.51,21.51,0,0,1-2.75-11,21.19,21.19,0,0,1,2.94-11.14,21.79,21.79,0,0,1,7.67-7.68A19.69,19.69,0,0,1,729,531.67a22.39,22.39,0,0,1,9.43,1.89,15.61,15.61,0,0,1,6.21,4.74l-.57,1.52,1.23-6.35H755v40.19a17.85,17.85,0,0,1-3,10.15,21.55,21.55,0,0,1-8.25,7.15A26.55,26.55,0,0,1,731.44,593.66ZM718.93,553a13,13,0,0,0,1.66,6.54,12.28,12.28,0,0,0,4.55,4.64,12.51,12.51,0,0,0,6.49,1.71,14.65,14.65,0,0,0,5.64-1,13,13,0,0,0,4.36-2.94,11.34,11.34,0,0,0,2.7-4.46v-8.81a11.81,11.81,0,0,0-7.06-7.26,15.77,15.77,0,0,0-5.64-1,13.15,13.15,0,0,0-6.49,1.61,11.82,11.82,0,0,0-4.55,4.46A12.67,12.67,0,0,0,718.93,553Z"/><path class="cls-3" d="M769.17,519a5,5,0,0,1,1.9-4,6.3,6.3,0,0,1,4.17-1.61,6.14,6.14,0,0,1,4.12,1.61,5.2,5.2,0,0,1,1.85,4.08,5.08,5.08,0,0,1-1.85,4,6.09,6.09,0,0,1-4.12,1.61,6.25,6.25,0,0,1-4.17-1.61A5.09,5.09,0,0,1,769.17,519Zm.47,14.5h10.62v40.1H769.64Z"/><path class="cls-3" d="M798.65,515.84h10.62v17.63H819.7v8.25H809.27v31.85H798.65V541.72h-6.92v-8.25h6.92Z"/><path class="cls-3" d="M847,574.61a22.09,22.09,0,0,1-10.29-2.37,17.3,17.3,0,0,1-7.25-7.06,26.27,26.27,0,0,1,.14-23.32,19.91,19.91,0,0,1,7.39-7.54,19.67,19.67,0,0,1,10-2.65,16.92,16.92,0,0,1,9.29,2.27,19.16,19.16,0,0,1,5.59,5.41l-.57,1.51,1-7.39h9.86v40.1H861.5V563.8l1,2.56a21.33,21.33,0,0,1-1.47,1.85,19.4,19.4,0,0,1-3.13,2.8,20.14,20.14,0,0,1-4.74,2.56A17.25,17.25,0,0,1,847,574.61Zm2.93-8.72a13.24,13.24,0,0,0,5.22-1,10.2,10.2,0,0,0,4-2.94,12.52,12.52,0,0,0,2.37-4.59v-8.72a10.86,10.86,0,0,0-2.51-4.32,12.63,12.63,0,0,0-4.17-2.89,13.29,13.29,0,0,0-5.27-1,11.79,11.79,0,0,0-10.42,6.07,12.94,12.94,0,0,0-1.61,6.54,12.76,12.76,0,0,0,1.7,6.54,13,13,0,0,0,4.5,4.64A11.7,11.7,0,0,0,849.93,565.89Z"/><path class="cls-3" d="M886.9,499.63h10.62v73.94H886.9Z"/><path class="cls-3" d="M194.72,510.14a37.15,37.15,0,0,0,0,52.54l.17.16a37,37,0,0,0,26.61,10.72,5.51,5.51,0,0,0,3.78-9.42,5.57,5.57,0,0,0-4-1.62,26.11,26.11,0,1,1,22-12.49c-.1.18-.22.36-.33.53a26.32,26.32,0,0,1-3.49,4.32,25.81,25.81,0,0,1-4.32,3.49l1.29,1.3a9.48,9.48,0,0,0,2.82,1.94,9.35,9.35,0,0,0,10.47-1.86l.07-.07.88-.9.21-.28c.13-.18.27-.36.39-.54l.05-.06a2.43,2.43,0,0,1,.14-.2l.09-.13.28-.41,0,0,0,0c.12-.17.23-.35.34-.52l.09-.12v0c.15-.23.29-.46.43-.69l0,0c.11-.19.23-.38.34-.58s.1-.16.14-.24l.13-.23a3.72,3.72,0,0,0,.19-.34l0,0c.13-.23.25-.47.38-.71l.08-.16.23-.46v0l.07-.13.2-.42a.54.54,0,0,1,.05-.11v0l.14-.29.06-.13.14-.32s0,0,0,0l.12-.27.06-.13.18-.43a.14.14,0,0,0,0-.07l0-.06.18-.45c0-.1.08-.19.11-.29a1.17,1.17,0,0,1,.05-.11v0s0-.09.05-.13.11-.3.16-.45a.36.36,0,0,0,0-.09c.08-.23.16-.45.23-.68h0c.09-.24.16-.49.24-.73,0,0,0,0,0-.07.07-.22.13-.43.19-.65s.19-.64.27-1,.1-.38.14-.58a1.17,1.17,0,0,0,.05-.2l.15-.64v-.07a37.15,37.15,0,0,0-62.56-34.19Z"/><path class="cls-3" d="M253.81,548.09l-.07.07A9.37,9.37,0,0,1,243.26,550a9.63,9.63,0,0,1-2.81-1.94l-8.69-8.7,8.2-3.83a2,2,0,0,0-.21-3.72l-32.27-11a1.59,1.59,0,0,0-2,2l10.93,32.28a2,2,0,0,0,3.71.21L224,547.2l12.46,12.47a9.48,9.48,0,0,0,2.82,1.94,9.35,9.35,0,0,0,10.47-1.86l.07-.07.88-.9.21-.28.3-.4a37,37,0,0,0,6.12-13.77C256.19,545.62,255,546.88,253.81,548.09Z"/><path class="cls-4" d="M257.89,532.16,247,538.43a26.1,26.1,0,0,1-3.74,11.6,9.36,9.36,0,0,0,10.47-1.87l.07-.07q1.83-1.82,3.47-3.75A37,37,0,0,0,257.89,532.16Z"/></g></g></svg>