<svg width="1080" height="1080" xmlns="http://www.w3.org/2000/svg" data-name="Layer 1">

 <title>firct_click_v2</title>
 <g>
  <title>Layer 1</title>
  <path id="svg_1" fill="#ffffff" d="m437.73,525.08l0,-33.08l-7.73,0l0,-13.1l7.78,0l0,-16q0,-9 5.21,-14.78t15.01,-5.72a27.51,27.51 0 0 1 6.58,0.89a18,18 0 0 1 6.36,2.89l-6.2,10.63a5.15,5.15 0 0 0 -2.48,-1.84a8.35,8.35 0 0 0 -2.68,-0.48a6.8,6.8 0 0 0 -5.15,2.11c-1.34,1.4 -2,3.64 -2,6.73l0,15.57l11.78,0l0,13.1l-11.75,0l0,33.13l-14.73,-0.05zm32.09,-62.28a6.61,6.61 0 0 1 2.57,-5.36a8.61,8.61 0 0 1 5.53,-2.11a8.22,8.22 0 0 1 5.42,2.11a6.75,6.75 0 0 1 2.47,5.36a6.61,6.61 0 0 1 -2.47,5.32a8.3,8.3 0 0 1 -5.42,2.05a8.7,8.7 0 0 1 -5.53,-2.05a6.48,6.48 0 0 1 -2.57,-5.32zm0.31,16.31l14.73,0l0,46l-14.73,0l0,-46z" class="cls-1"/>
  <path id="svg_2" fill="#ffffff" d="m513.26,479.11l1.37,12.63l-0.31,-1.9a20.87,20.87 0 0 1 5.47,-7a31.64,31.64 0 0 1 6.89,-4.48a13.88,13.88 0 0 1 5.21,-1.57l-0.74,14.73a13.11,13.11 0 0 0 -8.84,1.68a15.85,15.85 0 0 0 -5.68,6.1a16.5,16.5 0 0 0 -2,7.78l0,18l-14.63,0l0,-46l13.26,0.03z" class="cls-1"/>
  <path id="svg_3" fill="#ffffff" d="m558.08,526a27.7,27.7 0 0 1 -10.57,-2a23.22,23.22 0 0 1 -8.26,-5.57l6.1,-8.1a25,25 0 0 0 6.26,4.36a11.93,11.93 0 0 0 8.42,0.95a5.15,5.15 0 0 0 2.26,-1.16a2.68,2.68 0 0 0 0.84,-2a3.34,3.34 0 0 0 -1.42,-2.84a12.27,12.27 0 0 0 -3.63,-1.74c-1.47,-0.45 -3.05,-0.93 -4.73,-1.42q-6.32,-2 -9.1,-5.84a13.89,13.89 0 0 1 -2.79,-8.36a14.94,14.94 0 0 1 7.73,-12.89a20.65,20.65 0 0 1 10.47,-2.39a35.69,35.69 0 0 1 9.78,1.15a24.29,24.29 0 0 1 7.56,3.85l-5.58,8.63a20.7,20.7 0 0 0 -4.42,-2.73a12.81,12.81 0 0 0 -4.58,-1.21a7.55,7.55 0 0 0 -3.21,0.42a5.29,5.29 0 0 0 -2,1.36a2.7,2.7 0 0 0 -0.73,1.79a3.41,3.41 0 0 0 1.52,3.16a12.29,12.29 0 0 0 4.16,1.79q2.52,0.63 4.94,1.47a19.43,19.43 0 0 1 5.79,2.84a11.86,11.86 0 0 1 5.05,10.21a15.62,15.62 0 0 1 -2.16,7.94a15.84,15.84 0 0 1 -6.52,6.05a23.61,23.61 0 0 1 -11.18,2.28z" class="cls-1"/>
  <path id="svg_4" fill="#ffffff" d="m594.48,458.91l14.73,0l0,20l11.15,0l0,11.47l-11.15,0l0,34.71l-14.73,0l0,-34.72l-7.15,0l0,-11.47l7.15,0l0,-19.99z" class="cls-1"/>
  <path id="svg_5" fill="#ffffff" d="m670.65,521a23.89,23.89 0 0 1 -7.63,3.89a29,29 0 0 1 -9,1.48a30.59,30.59 0 0 1 -13.73,-2.9a21.09,21.09 0 0 1 -9,-8.31a25.22,25.22 0 0 1 -3.29,-13.11a23.81,23.81 0 0 1 3.47,-13.1a23,23 0 0 1 9.1,-8.26a26,26 0 0 1 11.84,-2.84a31.29,31.29 0 0 1 10.78,1.68a26.2,26.2 0 0 1 7.84,4.42l-7.16,9.47a21.46,21.46 0 0 0 -4,-2.37a14.2,14.2 0 0 0 -6.05,-1.21a10.31,10.31 0 0 0 -5.57,1.58a11.23,11.23 0 0 0 -4,4.31a13.16,13.16 0 0 0 -1.47,6.32a12.46,12.46 0 0 0 1.58,6.2a11.49,11.49 0 0 0 4.36,4.47a12.77,12.77 0 0 0 6.58,1.63a14,14 0 0 0 4.47,-0.68a10.27,10.27 0 0 0 3.52,-1.95l7.36,9.28z" class="cls-1"/>
  <path id="svg_6" fill="#ffffff" d="m682,442.08l14.73,0l0,83l-14.73,0l0,-83z" class="cls-1"/>
  <path id="svg_7" fill="#ffffff" d="m711.57,462.8a6.61,6.61 0 0 1 2.58,-5.36a8.59,8.59 0 0 1 5.52,-2.11a8.22,8.22 0 0 1 5.42,2.11a6.75,6.75 0 0 1 2.47,5.36a6.61,6.61 0 0 1 -2.47,5.32a8.3,8.3 0 0 1 -5.42,2.05a8.68,8.68 0 0 1 -5.52,-2.05a6.49,6.49 0 0 1 -2.58,-5.32zm0.31,16.31l14.73,0l0,46l-14.73,0l0,-46z" class="cls-1"/>
  <path id="svg_8" fill="#ffffff" d="m780.79,521a23.73,23.73 0 0 1 -7.62,3.89a29.08,29.08 0 0 1 -9,1.48a30.56,30.56 0 0 1 -13.73,-2.9a21.11,21.11 0 0 1 -9.05,-8.31a25.22,25.22 0 0 1 -3.21,-13.09a23.73,23.73 0 0 1 3.48,-13.1a22.82,22.82 0 0 1 9.1,-8.26a25.94,25.94 0 0 1 11.83,-2.84a31.35,31.35 0 0 1 10.79,1.68a26,26 0 0 1 7.83,4.42l-7.15,9.47a21.46,21.46 0 0 0 -4,-2.37a14.23,14.23 0 0 0 -6,-1.21a10.35,10.35 0 0 0 -5.58,1.58a11.28,11.28 0 0 0 -4,4.31a13.05,13.05 0 0 0 -1.48,6.32a12.57,12.57 0 0 0 1.58,6.2a11.52,11.52 0 0 0 4.37,4.47a12.73,12.73 0 0 0 6.57,1.63a13.92,13.92 0 0 0 4.47,-0.68a10.32,10.32 0 0 0 3.53,-1.95l7.27,9.26z" class="cls-1"/>
  <path id="svg_9" fill="#ffffff" d="m792.15,525.08l0,-83l14.73,0l0,83l-14.73,0zm10.31,-12.72l-1.47,-14l27.77,-20.36l9,7.89l-35.3,26.47zm16.1,-18.52l20.83,31.24l-17.15,0l-13.36,-22.82l9.68,-8.42z" class="cls-1"/>
  <path id="svg_10" fill="#ffffff" d="m452,621.19a22,22 0 0 1 -11.47,-3a20.67,20.67 0 0 1 -7.94,-8.68a29.27,29.27 0 0 1 -2.9,-13.46a26.18,26.18 0 0 1 3.16,-13.26a21,21 0 0 1 8.63,-8.31a27.84,27.84 0 0 1 20.92,-1.48a16.61,16.61 0 0 1 6.79,4.21l0,-40.3l14.62,0l0,83l-14.73,0l0,-8.91l1.16,3.15a37,37 0 0 1 -8,5a23.94,23.94 0 0 1 -10.24,2.04zm4.84,-12.41a15.62,15.62 0 0 0 5.2,-0.79a12,12 0 0 0 4,-2.32a13.63,13.63 0 0 0 3,-3.84l0,-11.25a10.05,10.05 0 0 0 -2.58,-4a12,12 0 0 0 -4.21,-2.52a15.67,15.67 0 0 0 -5.41,-0.9a11.83,11.83 0 0 0 -6.05,1.63a12.46,12.46 0 0 0 -6.16,11a13.08,13.08 0 0 0 1.69,6.63a12.55,12.55 0 0 0 4.47,4.62a11.42,11.42 0 0 0 6.09,1.74l-0.04,0z" class="cls-2"/>
  <path id="svg_11" fill="#ffffff" d="m498.64,557.65a6.65,6.65 0 0 1 2.58,-5.37a8.59,8.59 0 0 1 5.52,-2.1a8.19,8.19 0 0 1 5.42,2.1a6.75,6.75 0 0 1 2.47,5.37a6.58,6.58 0 0 1 -2.47,5.31a8.28,8.28 0 0 1 -5.42,2a8.7,8.7 0 0 1 -5.52,-2a6.48,6.48 0 0 1 -2.58,-5.31zm0.36,16.35l14.73,0l0,46l-14.73,0l0,-46z" class="cls-2"/>
  <path id="svg_12" fill="#ffffff" d="m552.61,643.07a32.37,32.37 0 0 1 -10.47,-1.47a27.8,27.8 0 0 1 -7.2,-3.58q-3,-2.1 -5.26,-4l8.62,-10.1a42.24,42.24 0 0 0 5.63,4.26a15.51,15.51 0 0 0 8.47,2a17.28,17.28 0 0 0 6.47,-1.21a11.63,11.63 0 0 0 4.84,-3.52a9,9 0 0 0 1.84,-5.79l0,-10.1l0.53,2.63a15.16,15.16 0 0 1 -6.1,6.26q-4.43,2.68 -11.58,2.68a21.87,21.87 0 0 1 -11.52,-3.13a23.89,23.89 0 0 1 -8.47,-8.73a24.91,24.91 0 0 1 -3.15,-12.57a24.57,24.57 0 0 1 3.37,-12.89a25.55,25.55 0 0 1 8.73,-8.89a21.53,21.53 0 0 1 11.36,-3.26a27.91,27.91 0 0 1 10.36,1.74a16.75,16.75 0 0 1 6.58,4.26l-0.53,1.37l1.58,-5l13.57,0l0,46a19.74,19.74 0 0 1 -3.79,11.94a26.09,26.09 0 0 1 -10,8.21a31.63,31.63 0 0 1 -13.88,2.89zm-12.52,-46.81a13.08,13.08 0 0 0 1.69,6.63a12.38,12.38 0 0 0 4.57,4.63a12.66,12.66 0 0 0 6.47,1.68a17,17 0 0 0 5.42,-0.79a12.57,12.57 0 0 0 7.31,-6.15l0,-11.26a10.34,10.34 0 0 0 -2.84,-4a14,14 0 0 0 -4.37,-2.52a16,16 0 0 0 -5.52,-0.9a12.94,12.94 0 0 0 -6.47,1.64a12,12 0 0 0 -4.57,4.47a12.45,12.45 0 0 0 -1.69,6.57z" class="cls-2"/>
  <path id="svg_13" fill="#ffffff" d="m595.11,557.65a6.65,6.65 0 0 1 2.58,-5.37a8.59,8.59 0 0 1 5.52,-2.1a8.19,8.19 0 0 1 5.42,2.1a6.75,6.75 0 0 1 2.47,5.37a6.58,6.58 0 0 1 -2.47,5.31a8.28,8.28 0 0 1 -5.42,2a8.7,8.7 0 0 1 -5.52,-2a6.48,6.48 0 0 1 -2.58,-5.31zm0.32,16.31l14.73,0l0,46l-14.73,0l0,-46z" class="cls-2"/>
  <path id="svg_14" fill="#ffffff" d="m629.62,553.76l14.73,0l0,20l11.15,0l0,11.47l-11.15,0l0,34.72l-14.73,0l0,-34.74l-7.16,0l0,-11.47l7.16,0l0,-19.98z" class="cls-2"/>
  <path id="svg_15" fill="#ffffff" d="m686.11,621.19a25.79,25.79 0 0 1 -11.62,-2.58a19.09,19.09 0 0 1 -8.26,-7.94c-2,-3.58 -3.05,-8.13 -3.05,-13.68a27.36,27.36 0 0 1 3.15,-13.46a23.12,23.12 0 0 1 8.32,-8.79a20.92,20.92 0 0 1 10.94,-3.1q6.84,0 10.36,2.26a26,26 0 0 1 5.84,5l-0.63,1.79l1.36,-6.73l13.68,0l0,46l-14.73,0l0,-10l1.16,3.15c-0.14,0 -0.56,0.41 -1.26,1.21a23.13,23.13 0 0 1 -3.11,2.84a19.8,19.8 0 0 1 -5,2.84a18.84,18.84 0 0 1 -7.15,1.19zm4.21,-12a13.39,13.39 0 0 0 4.74,-0.79a10.73,10.73 0 0 0 3.68,-2.31a14,14 0 0 0 2.73,-3.84l0,-11.25a10.38,10.38 0 0 0 -2.52,-4a11.94,11.94 0 0 0 -4,-2.52a14.11,14.11 0 0 0 -5.16,-0.9a11,11 0 0 0 -5.83,1.64a11.74,11.74 0 0 0 -4.26,4.47a14.08,14.08 0 0 0 0.1,13.15a12.66,12.66 0 0 0 4.47,4.63a11.53,11.53 0 0 0 6.05,1.73l0,-0.01z" class="cls-2"/>
  <path id="svg_16" fill="#ffffff" d="m731.35,536.92l14.73,0l0,83l-14.73,0l0,-83z" class="cls-2"/>
  <path id="svg_17" fill="#ffffff" d="m263.76,469.39a87.9,87.9 0 0 0 -0.05,124.33l0.4,0.4a87.65,87.65 0 0 0 63,25.37c11.5,-0.16 17.09,-14.17 9,-22.31a12.92,12.92 0 0 0 -4.33,-2.86a13.2,13.2 0 0 0 -5.11,-1a61.77,61.77 0 1 1 52,-29.56c-0.26,0.43 -0.53,0.85 -0.8,1.27a62,62 0 0 1 -18.49,18.47l3.08,3.08a22.55,22.55 0 0 0 6.65,4.6a22.18,22.18 0 0 0 24.79,-4.42l0.16,-0.16c0.7,-0.7 1.39,-1.41 2.08,-2.12c0.17,-0.22 0.34,-0.44 0.5,-0.67c0.32,-0.42 0.63,-0.85 0.94,-1.28l0.09,-0.14l0.33,-0.39l0.22,-0.32l0.66,-1a0.47,0.47 0 0 0 0.06,-0.09a0.61,0.61 0 0 0 0.07,-0.1c0.28,-0.4 0.54,-0.81 0.81,-1.22c0.06,-0.1 0.12,-0.2 0.19,-0.3l0,0s0,0 0,-0.06c0.35,-0.54 0.69,-1.08 1,-1.63a0.09,0.09 0 0 0 0,-0.06c0.27,-0.45 0.55,-0.91 0.81,-1.37c0.12,-0.19 0.23,-0.38 0.34,-0.58l0.3,-0.53c0.16,-0.27 0.3,-0.54 0.45,-0.81l0.06,-0.11c0.31,-0.56 0.61,-1.13 0.9,-1.69c0.07,-0.13 0.14,-0.25 0.2,-0.39c0.19,-0.36 0.37,-0.72 0.55,-1.09l0,-0.05l0.15,-0.31c0.16,-0.32 0.32,-0.65 0.47,-1a1.79,1.79 0 0 0 0.12,-0.24a0.2,0.2 0 0 0 0,-0.08c0.11,-0.23 0.22,-0.46 0.32,-0.69l0.13,-0.3c0.12,-0.25 0.23,-0.5 0.34,-0.75a0.3,0.3 0 0 1 0,-0.08l0.28,-0.64c0,-0.11 0.09,-0.21 0.13,-0.31c0.15,-0.34 0.29,-0.68 0.43,-1l0.06,-0.15l0.06,-0.14c0.15,-0.36 0.29,-0.72 0.43,-1.08s0.18,-0.46 0.26,-0.69l0.11,-0.26l0,-0.09a2.39,2.39 0 0 0 0.11,-0.32c0.14,-0.34 0.27,-0.69 0.39,-1a2.09,2.09 0 0 0 0.08,-0.23c0.19,-0.53 0.38,-1.07 0.55,-1.6l0,0c0.19,-0.57 0.38,-1.14 0.56,-1.72c0,-0.06 0,-0.12 0.05,-0.17c0.16,-0.51 0.31,-1 0.46,-1.54c0.22,-0.75 0.43,-1.52 0.63,-2.27c0.11,-0.46 0.23,-0.91 0.34,-1.36c0,-0.16 0.07,-0.32 0.11,-0.47c0.12,-0.51 0.24,-1 0.35,-1.53l0,-0.15a87.92,87.92 0 0 0 -148,-80.93l0.22,-0.11z" class="cls-2"/>
  <path id="svg_18" fill="#ffffff" d="m403.58,559.21l-0.16,0.16a22.34,22.34 0 0 1 -31.45,-0.18l-20.56,-20.57l19.39,-9.07a4.74,4.74 0 0 0 -0.48,-8.79l-76.38,-25.92a3.75,3.75 0 0 0 -4.75,4.75l25.86,76.41a4.74,4.74 0 0 0 8.79,0.49l9.08,-19.39l29.5,29.52a22.55,22.55 0 0 0 6.65,4.6a22.18,22.18 0 0 0 24.79,-4.42l0.16,-0.16c0.7,-0.7 1.39,-1.41 2.08,-2.12c0.17,-0.22 0.34,-0.44 0.5,-0.67l0.71,-1a87.23,87.23 0 0 0 14.49,-32.56q-3.9,4.61 -8.22,8.92z" class="cls-2"/>
 </g>
</svg>