<svg width="86" height="86" viewBox="0 0 86 86" fill="none" xmlns="http://www.w3.org/2000/svg">
<path d="M7.00006 64.0001V79.0001H22.0001L66.2401 34.7201L51.2401 19.7201L7.00006 64.0001ZM85.4401 68.4401L68.4401 85.4401L47.6401 64.6401L54.7201 57.5601L58.7201 61.5601L68.6001 51.6401L74.2801 57.3201L68.4401 63.0001L72.6801 67.0001L78.3601 61.4001L85.4401 68.4401ZM21.4401 38.3201L0.560059 17.5601L17.5601 0.560059L24.6001 7.64006L14.7201 17.5601L19.0001 21.8001L28.8401 11.8801L34.5201 17.5601L28.8401 23.2001L32.8401 27.2001L21.4401 38.3201ZM77.8401 23.0001C79.4001 21.4401 79.4001 19.0001 77.8401 17.3601L68.4801 8.16006C67.0001 6.60006 64.4001 6.60006 62.8401 8.16006L55.4801 15.4801L70.4801 30.4801L77.8401 23.0001Z" fill="#20BDFF"/>
</svg>
